
<svg xmlns="http://www.w3.org/2000/svg" version="1.1" xmlns:xlink="http://www.w3.org/1999/xlink" preserveAspectRatio="none" x="0px" y="0px" width="200px" height="200px" viewBox="0 0 200 200">
<defs>
<g id="Layer0_0_FILL">
<path fill="#006400" stroke="none" d="
M 166.35 141.1
Q 170.25 130.6 169.15 116.6 165.7 71.65 135.7 51.75 135.7 50.4 136.3 49.25 145.85 32.2 157.35 16.65 155.95 15.4 134.4 15.15 116.7 14.9 96.3 15.2
L 83.85 15.4
Q 54.85 15.8 44.8 16.15 45.4 16.75 45.8 17.35 57 34.8 65.6 54.45 64.3 54.45 63.45 55.05 41.2 71.85 31.3 100.35 28 133.75 41.5 151.25 42.7 152.75 43.6 154.4 56.45 175.35 87.8 184.2 88.95 184.55 96.3 184.85
L 99.35 184.9
Q 109.65 185.2 114.6 184.5 120 183.75 135.4 178 151.1 172.3 164.05 146.1
L 166.35 141.1 Z"/>
</g>
</defs>

<g transform="matrix( 1, 0, 0, 1, 0,0) ">
<use xlink:href="#Layer0_0_FILL"/>
</g>
</svg>
