
<svg xmlns="http://www.w3.org/2000/svg" version="1.1" xmlns:xlink="http://www.w3.org/1999/xlink" preserveAspectRatio="none" x="0px" y="0px" width="200px" height="200px" viewBox="0 0 200 200">
<defs>
<g id="Layer0_0_FILL">
<path fill="#006400" fill-opacity="0.984313725490196" stroke="none" d="
M 188 58.35
Q 187.2 56.75 185.7 56 150.9 40.55 115.95 27.8 97 20.8 80.1 12.6 70.5 7.95 59.8 11.65 51.2 15.65 49.5 26.6 49 29.7 48 32.35 43.45 43 37.6 58.1 21.05 100.3 9.9 128.2 9.9 132.6 10.65 136.4 12.65 147.2 23.15 150 37.7 153.85 50.2 158.8 87.05 173.4 120.75 187.95 130.65 191.95 141.35 188.2 142.15 187.35 142.8 186.45 151.2 175.05 156.7 160 168.5 126.15 183.35 88.45 184.8 84.65 187.6 78.95 192.35 69.75 188 58.35
M 141.35 89.95
Q 134.3 87.05 134.7 76.65
L 134.7 75
Q 137.4 64.4 151.3 65.45 163.35 66.15 162.95 79.95 161.5 93.45 144.7 91.05 142.85 90.7 141.35 89.95
M 90.9 44.35
Q 92.5 47.05 91.45 53.35 89.6 66.45 73.1 65.05
L 71.45 65
Q 64.25 59.8 63.25 48.4 63.15 47.95 63.15 46.7 67.2 37.55 79.65 37.9 87.35 38.3 90.9 44.35
M 56.5 98.25
Q 49.45 94.65 49.7 83.3
L 49.7 81.65
Q 53.9 72.45 68 74.3 78.95 75.85 78.1 89.95 75.5 101.55 59.9 99.35 58.05 99.1 56.5 98.25
M 43.3 134.15
Q 43.1 134.15 43.1 133.25 36.1 130.2 36.45 119.9
L 36.45 118.25
Q 39.2 107.8 53.2 108.65 65.9 109.75 64.8 124.9 61.65 137.65 43.3 134.15
M 149.65 114.95
Q 147.6 127.85 133.05 127.5 131.3 127.4 129.7 126.55 120.55 123.25 121.25 109.95
L 121.4 108.3
Q 125.25 99.55 137.95 100.7 149.6 101.7 149.65 114.95
M 107.95 144.85
Q 108.1 144.15 108.1 143.2 111.9 134.55 124.55 136.1 135.5 137.45 136.4 149.85 134.25 162.85 119.75 162.4 118.1 162.4 116.4 161.55 106.85 158.55 107.95 144.85 Z"/>
</g>
</defs>

<g transform="matrix( 1, 0, 0, 1, 0,0) ">
<use xlink:href="#Layer0_0_FILL"/>
</g>
</svg>
