
<svg xmlns="http://www.w3.org/2000/svg" version="1.1" xmlns:xlink="http://www.w3.org/1999/xlink" preserveAspectRatio="none" x="0px" y="0px" width="200px" height="200px" viewBox="0 0 200 200">
<defs>
<g id="Layer1_0_FILL">
<path fill="#F4F4F4" stroke="none" d="
M 502.9 31.25
Q 497.65 40.05 495.55 44 492.4 47.45 487.95 49.55 485.45 51.1 483.75 53.25 478.95 60 473.85 64.55 466.15 71.6 456.1 80.1 447 87.85 430.2 87.85
L 429.15 87.85
Q 425.2 87.85 423 89.15 421.9 89.75 421.25 90.7 422.15 91.1 423 91.5 427.85 93.65 432.6 94.75
L 434.25 95.7
Q 440.35 98.9 450.1 98.45 456.1 98.1 454.6 99.5 449.15 101.55 441.35 100.35
L 440.1 99.95 427.95 99.5
Q 425.3 99.5 423 99.4 420.3 99.25 418.05 98.95 412.15 98.3 411.3 101.7 410.8 102.35 410.95 102.5 411.25 103.45 412.4 103.7 418.45 103.95 423 105.8 423.75 106.1 424.5 106.45 425.1 106.85 425.1 106.95 424.5 108.7 423 109.65 421.85 110.4 420.15 110.7 410.25 110.7 405.95 104.95
L 404.4 103.7
Q 401.45 101.95 402 103.95 402.9 111.05 405.8 116.15 409.4 121.05 405.65 120.05 401.35 119.2 398.05 117.15 392.3 113.5 388.15 108.45
L 388 113.9
Q 387.6 123.55 389.45 129.4
L 389.9 130.8
Q 392.85 141.75 397.2 149.4
L 397.6 150.65
Q 399.35 158 402.95 162.45
L 406.45 167.7
Q 413.55 177.95 421.9 185.45
L 423.1 186.65
Q 438.95 201.45 465.1 206.65
L 467.95 207.15 467.75 206.65
Q 465.35 201.45 463 195.15 460.85 190.2 459.75 182.7 458.5 172 460.2 163.85 462.2 167.4 461.85 173.85 461.4 179.55 463 184.1 466.35 193.1 472.1 198.55 475.5 201.95 477.35 206.65
L 477.95 208.3
Q 479.1 211.55 483.5 211.55
L 485.6 211.45
Q 490.85 210.1 494.55 207.3
L 495.2 206.65
Q 513.1 192.5 535.45 182.45 536.25 182.15 536.7 182.15 544.5 181.85 552.15 183.6 558.7 185.05 564.55 186.8 565.25 187 565.45 187.1 570.2 188.6 574.25 186.65
L 576 185.85
Q 578.95 184.25 580.65 183.1 582.55 181.95 584.5 180.45 586.15 179.1 587 176.15 587.25 175.3 587.25 174.9 587.75 166.25 587.75 159.4 584.75 158.2 584.75 159.4 585.15 163.6 584 165.4
L 582.9 166.7 581.2 168.3
Q 578.6 170.65 576 173.9
L 574.25 176.05
Q 573.8 176.8 573.3 176.8 568.95 177.6 565.45 177.05 563.5 176.65 562.25 176.05 559.85 174.85 560.45 174.35 560.8 173.85 564.5 173.85
L 565.45 173.85
Q 567.25 173.7 568 173.35 573.5 171.4 575.9 166.3 575.9 166.15 576 166.1 576.55 164.95 577.2 164.05 579.5 160 583.3 157.15 586.7 154.7 587.75 149.4
L 587.95 141.65
Q 587.95 137.65 583.45 137.65 578.35 137.65 576 139.3
L 575.65 139.45
Q 575.7 139.65 576 139.8 576.2 139.9 576.7 139.9 580.4 140.45 581.7 142.05 582.15 142.9 581.7 143.35 579.8 145.3 577.9 146.4 576.75 147 576 147.95 575.45 148.55 575 149.65
L 573.8 153.65
Q 572.3 159.1 568.5 162.3 566.95 163.4 565.45 164.1 563.9 164.75 563.45 164.9 562.85 165.5 562.15 165.7 556.3 167.05 559.5 164.6
L 560.2 163.9
Q 563.75 160.5 565.4 155.95
L 565.45 155.85
Q 568.7 146.9 571.45 136.4
L 571.7 135.05
Q 570.8 129.1 567.75 124.95 566.35 124.7 565.45 124.7 562.6 124.7 562.75 127.15
L 562.75 129.45
Q 562.75 132.1 563.05 133.9 563.8 142.25 561.5 147.45 561.15 148.6 560.65 149.1 556.65 154.65 553.45 158.35 552.5 158.35 551.2 158.8
L 549.9 159.1
Q 548.7 159.4 547.75 159.4 545.4 159.4 545.15 157.15
L 544.75 153.8
Q 543.55 151.35 543.25 149.05 541.85 146.9 541.2 146.1 540 145.15 539.25 143.85 537.5 141.5 538.95 136.15 540 135.05 540.45 133.8 541.15 131.85 542.5 131.4 547.5 130 550.2 131.4 551.2 131.8 551.2 131.65 551.95 125.65 545.65 124.95 539.55 124.35 535.45 125.8 533.95 126.65 533.95 126.8 533.3 127.55 532.95 128.3 529.65 134.85 527.65 140.45 527.15 141.35 527.4 141.4 528.3 143.45 527.25 145.3 524.5 150.05 524.5 157.15 524.5 158.4 525.05 159.1 527.3 162.85 525.65 166.05 525 166.05 524.65 166.4 516.85 171.55 506.7 173.85
L 503.45 173.85
Q 501.45 173.85 500.45 173.35 496.1 171.65 501.2 171.65 502.25 171.65 502.9 171.05 506.05 167.45 502.4 164.9 499.8 162.15 505.55 162.95 509.15 163.4 511.7 165.45
L 512.4 166.05
Q 512.7 157.5 506.7 153.85 504.55 151.65 507.7 150.15
L 508.95 149.9
Q 511.9 150.45 510.8 147.45 509.05 142.7 506.4 137.95 503.7 133.85 506.7 132.8 507.5 134.85 510.05 134.7 510.95 134.55 509.8 130.7 508.45 126.7 510.8 120.95 514.15 113 519.5 105.6 525.9 96.9 533.45 90.7 533.95 90.2 534.25 89.5 536.45 84.55 543.45 83.95 545.75 86.7 546.95 85.45 547.6 84.75 548.75 84.75 551 85.5 552.45 87.35
L 552.5 87.6
Q 552.8 88 553.05 87.75 553.4 87.75 553.75 87.45
L 553.95 86.35
Q 553.6 83.35 555.65 83.35 561.7 83.35 560.15 80.6
L 558.75 79.85
Q 557.65 78.9 557.25 78.2 555.1 74.95 550.25 68.3 549.4 67.4 548.7 67.1 546.65 66.3 544.75 65.75 538.85 63.75 536.45 58.55 535.95 58 535.65 58 530.3 57.3 533.45 59.55 533.2 64.4 534.25 67.5 534.5 68.7 533.95 69 533.35 69.6 532.95 69 531.7 67.75 528.95 67.75 526.6 68 526.95 69.55 527.4 72.8 525.65 73.25
L 524.75 74.05
Q 522.95 80.85 515.55 81.7 513.55 81.7 513.55 79.6 513.4 77.65 512.65 75.45 511.45 72.1 512.7 66.35 512.95 65.75 513.45 65.75 516.4 66.3 515.05 63.25 512.55 58.3 515.55 56.35 516.05 56.35 516.65 56.05 517.05 56.05 517.25 55.75 513.9 51.95 517.9 50.75 523.6 48.9 518.95 44
L 518.5 43.5
Q 520.65 40.8 522.25 45.15 522.6 46.3 523.7 46.9 525.65 48.55 525.65 46.4 525.65 41.55 523.5 37.55 519.65 31.95 517 25.15 515.2 20.75 511.05 18.5 506.55 19.1 505.8 23.15 505.05 27.95 502.9 31.25
M 494.65 55.55
Q 497.4 54.65 496.8 57.45 495.65 62.45 489 62.45 488.5 62.45 488 63 486.65 64.35 486.1 63.8 485.6 63.4 485.6 60.75 489.55 57.55 494.65 55.55 Z"/>
</g>

<g id="Layer0_0_FILL">
<path fill="#F4F4F4" stroke="none" d="
M 183.5 143.3
Q 184.1 140.4 184.1 139.7 185.15 120.8 185.15 102.05 184.65 102.05 184.65 101.9 183.1 94.3 175.5 93.6 169 93.15 169 99.6 169 104.5 167.85 108.05 164.95 117 164.55 127.65 164.2 134.1 162.1 137.3 162.1 118.5 162.8 99.6 163.1 92.9 160.95 88.7
L 160.95 88.1
Q 151.3 89.25 143.95 92.4 143.95 93.1 143.7 93.5 140.9 100.5 130.55 99.6 127.9 98.7 126.2 96.65 125.8 96.2 125.45 95.45 124.05 93.4 120.85 93.6 99.8 95.25 78.35 94.8 77.9 94.8 77.5 95.1 73.4 100.9 62.6 99.6 60.5 96.85 59.75 94.45 58.4 91.15 54.3 90.15 47.55 88.55 41.95 87.5 41.45 88.15 41.45 88.7 40.7 105.7 41.45 122.75 41.7 129.45 39.6 133.7
L 39.6 132.45
Q 38.9 111.1 34.7 93.6 25.7 92.55 22 96.8 17.95 101.3 15.15 105.65
L 15.15 115.4
Q 15.15 120.75 16.1 126.2 17.55 134.15 17.6 142.15 23 157.1 32.85 166.95 50.55 185.25 85.65 186.45 123.95 187.85 148.85 179.95 176.2 171.4 183.5 143.3
M 174.3 62.1
L 174.3 60.9
Q 174.7 44.2 168.25 34.15
L 128.2 34.15
Q 128.2 33.75 127.95 32.95 126.15 27.15 123.3 20.8 122.6 20.8 122.45 20.45 118.25 16.35 112.35 13.5
L 105.15 13.5
Q 100.85 13.5 96.75 14.4 90.1 15.85 85.65 14.75 84.25 17.45 81.35 19.3 75.5 23 74.75 31.65 72.4 35.45 65 34.15 50.25 31.4 35.9 34.15 35.35 34.15 35.05 34.5
L 28.55 42.6 28.55 43.85
Q 27.1 66.6 38.35 76.6 38.95 76.6 39.4 76.9 44.05 79 50.4 81.4
L 51.65 81.4
Q 59.15 81.35 61.4 75.35 65.05 73.45 71.15 73.9 75.85 74.3 77.15 77.9
L 78.45 80.15
Q 79 80.9 78.95 81.4 78.75 85.45 80.85 85.55 93.55 87.15 106.25 86.85 107.85 86.85 111.05 87.1 120.8 88.15 123.3 82.7 123.3 82.05 123.4 81.5 127.05 70.25 140.25 74.1 140.25 75.35 140.9 76.2 141.4 76.9 142.05 78.2 143.7 81.7 148.6 80.75 166.85 77.3 174.3 62.1
M 89.5 31.15
Q 89.3 31.1 89.3 30.4 99.05 24.2 110.05 29.1 110.45 29.35 111.05 29.35 113.9 33.75 109.95 34.05
L 108.75 34.15
Q 97.1 34.8 89.5 31.15 Z"/>
</g>
</defs>

<g transform="matrix( 1, 0, 0, 1, 0,0) ">
<use xlink:href="#Layer1_0_FILL"/>
</g>

<g transform="matrix( 1, 0, 0, 1, 0,0) ">
<use xlink:href="#Layer0_0_FILL"/>
</g>
</svg>
