
<svg xmlns="http://www.w3.org/2000/svg" version="1.1" xmlns:xlink="http://www.w3.org/1999/xlink" preserveAspectRatio="none" x="0px" y="0px" width="200px" height="200px" viewBox="0 0 200 200">
<defs>
<g id="Layer0_0_FILL">
<path fill="#F4F4F4" stroke="none" d="
M 166 71.35
Q 165.65 68.35 167.7 68.35 173.75 68.35 172.2 65.6
L 170.8 64.85
Q 169.7 63.9 169.3 63.2 167.15 59.95 162.3 53.3 161.45 52.4 160.75 52.1 158.7 51.3 156.8 50.75 150.9 48.75 148.5 43.55 148 43 147.7 43 142.35 42.3 145.5 44.55 145.25 49.4 146.3 52.5 146.55 53.7 146 54 145.4 54.6 145 54 143.75 52.75 141 52.75 138.65 53 139 54.55 139.45 57.8 137.7 58.25
L 136.8 59.05
Q 135 65.85 127.6 66.7 125.6 66.7 125.6 64.6 125.45 62.65 124.7 60.45 123.5 57.1 124.75 51.35 125 50.75 125.5 50.75 128.45 51.3 127.1 48.25 124.6 43.3 127.6 41.35 128.1 41.35 128.7 41.05 129.1 41.05 129.3 40.75 125.95 36.95 129.95 35.75 135.65 33.9 131 29
L 130.55 28.5
Q 132.7 25.8 134.3 30.15 134.65 31.3 135.75 31.9 137.7 33.55 137.7 31.4 137.7 26.55 135.55 22.55 131.7 16.95 129.05 10.15 127.25 5.75 123.1 3.5 118.6 4.1 117.85 8.15 117.1 12.95 114.95 16.25 109.7 25.05 107.6 29 104.45 32.45 100 34.55 97.5 36.1 95.8 38.25 91 45 85.9 49.55 78.2 56.6 68.15 65.1 59.05 72.85 42.25 72.85
L 41.2 72.85
Q 37.25 72.85 35.05 74.15 33.95 74.75 33.3 75.7 34.2 76.1 35.05 76.5 39.9 78.65 44.65 79.75
L 46.3 80.7
Q 52.4 83.9 62.15 83.45 68.15 83.1 66.65 84.5 61.2 86.55 53.4 85.35
L 52.15 84.95 40 84.5
Q 37.35 84.5 35.05 84.4 32.35 84.25 30.1 83.95 24.2 83.3 23.35 86.7 22.85 87.35 23 87.5 23.3 88.45 24.45 88.7 30.5 88.95 35.05 90.8 35.8 91.1 36.55 91.45 37.15 91.85 37.15 91.95 36.55 93.7 35.05 94.65 33.9 95.4 32.2 95.7 22.3 95.7 18 89.95
L 16.45 88.7
Q 13.5 86.95 14.05 88.95 14.95 96.05 17.85 101.15 21.45 106.05 17.7 105.05 13.4 104.2 10.1 102.15 4.35 98.5 0.2 93.45
L 0.05 98.9
Q -0.35 108.55 1.5 114.4
L 1.95 115.8
Q 4.9 126.75 9.25 134.4
L 9.65 135.65
Q 11.4 143 15 147.45
L 18.5 152.7
Q 25.6 162.95 33.95 170.45
L 35.15 171.65
Q 51 186.45 77.15 191.65
L 80 192.15 79.8 191.65
Q 77.4 186.45 75.05 180.15 72.9 175.2 71.8 167.7 70.55 157 72.25 148.85 74.25 152.4 73.9 158.85 73.45 164.55 75.05 169.1 78.4 178.1 84.15 183.55 87.55 186.95 89.4 191.65
L 90 193.3
Q 91.15 196.55 95.55 196.55
L 97.65 196.45
Q 102.9 195.1 106.6 192.3
L 107.25 191.65
Q 125.15 177.5 147.5 167.45 148.3 167.15 148.75 167.15 156.55 166.85 164.2 168.6 170.75 170.05 176.6 171.8 177.3 172 177.5 172.1 182.25 173.6 186.3 171.65
L 188.05 170.85
Q 191 169.25 192.7 168.1 194.6 166.95 196.55 165.45 198.2 164.1 199.05 161.15 199.3 160.3 199.3 159.9 199.8 151.25 199.8 144.4 196.8 143.2 196.8 144.4 197.2 148.6 196.05 150.4
L 194.95 151.7 193.25 153.3
Q 190.65 155.65 188.05 158.9
L 186.3 161.05
Q 185.85 161.8 185.35 161.8 181 162.6 177.5 162.05 175.55 161.65 174.3 161.05 171.9 159.85 172.5 159.35 172.85 158.85 176.55 158.85
L 177.5 158.85
Q 179.3 158.7 180.05 158.35 185.55 156.4 187.95 151.3 187.95 151.15 188.05 151.1 188.6 149.95 189.25 149.05 191.55 145 195.35 142.15 198.75 139.7 199.8 134.4
L 200 126.65
Q 200 122.65 195.5 122.65 190.4 122.65 188.05 124.3
L 187.7 124.45
Q 187.75 124.65 188.05 124.8 188.25 124.9 188.75 124.9 192.45 125.45 193.75 127.05 194.2 127.9 193.75 128.35 191.85 130.3 189.95 131.4 188.8 132 188.05 132.95 187.5 133.55 187.05 134.65
L 185.85 138.65
Q 184.35 144.1 180.55 147.3 179 148.4 177.5 149.1 175.95 149.75 175.5 149.9 174.9 150.5 174.2 150.7 168.35 152.05 171.55 149.6
L 172.25 148.9
Q 175.8 145.5 177.45 140.95
L 177.5 140.85
Q 180.75 131.9 183.5 121.4
L 183.75 120.05
Q 182.85 114.1 179.8 109.95 178.4 109.7 177.5 109.7 174.65 109.7 174.8 112.15
L 174.8 114.45
Q 174.8 117.1 175.1 118.9 175.85 127.25 173.55 132.45 173.2 133.6 172.7 134.1 168.7 139.65 165.5 143.35 164.55 143.35 163.25 143.8
L 161.95 144.1
Q 160.75 144.4 159.8 144.4 157.45 144.4 157.2 142.15
L 156.8 138.8
Q 155.6 136.35 155.3 134.05 153.9 131.9 153.25 131.1 152.05 130.15 151.3 128.85 149.55 126.5 151 121.15 152.05 120.05 152.5 118.8 153.2 116.85 154.55 116.4 159.55 115 162.25 116.4 163.25 116.8 163.25 116.65 164 110.65 157.7 109.95 151.6 109.35 147.5 110.8 146 111.65 146 111.8 145.35 112.55 145 113.3 141.7 119.85 139.7 125.45 139.2 126.35 139.45 126.4 140.35 128.45 139.3 130.3 136.55 135.05 136.55 142.15 136.55 143.4 137.1 144.1 139.35 147.85 137.7 151.05 137.05 151.05 136.7 151.4 128.9 156.55 118.75 158.85
L 115.5 158.85
Q 113.5 158.85 112.5 158.35 108.15 156.65 113.25 156.65 114.3 156.65 114.95 156.05 118.1 152.45 114.45 149.9 111.85 147.15 117.6 147.95 121.2 148.4 123.75 150.45
L 124.45 151.05
Q 124.75 142.5 118.75 138.85 116.6 136.65 119.75 135.15
L 121 134.9
Q 123.95 135.45 122.85 132.45 121.1 127.7 118.45 122.95 115.75 118.85 118.75 117.8 119.55 119.85 122.1 119.7 123 119.55 121.85 115.7 120.5 111.7 122.85 105.95 126.2 98 131.55 90.6 137.95 81.9 145.5 75.7 146 75.2 146.3 74.5 148.5 69.55 155.5 68.95 157.8 71.7 159 70.45 159.65 69.75 160.8 69.75 163.05 70.5 164.5 72.35
L 164.55 72.6
Q 164.85 73 165.1 72.75 165.45 72.75 165.8 72.45
L 166 71.35
M 101.05 47.45
Q 100.55 47.45 100.05 48 98.7 49.35 98.15 48.8 97.65 48.4 97.65 45.75 101.6 42.55 106.7 40.55 109.45 39.65 108.85 42.45 107.7 47.45 101.05 47.45 Z"/>
</g>
</defs>

<g transform="matrix( 1, 0, 0, 1, 0,0) ">
<use xlink:href="#Layer0_0_FILL"/>
</g>
</svg>
