
<svg xmlns="http://www.w3.org/2000/svg" version="1.1" xmlns:xlink="http://www.w3.org/1999/xlink" preserveAspectRatio="none" x="0px" y="0px" width="400px" height="211px" viewBox="0 0 400 211">
<defs>
<g id="Layer0_0_FILL">
<path fill="#8C0404" stroke="none" d="
M 37.15 129.8
L 32.9 138.35 2.25 123.5 0 128.3 34.15 145.05 40.75 131.55 37.15 129.8
M 42.7 112.25
L 41.75 111.6 38.95 116.25 41.2 117.75 42 118.85
Q 42.7 119.3 42.7 120.1 42.7 120.75 42 121.35 41.85 122.25 41.2 122.25
L 40 122.6 37.25 121.65 34.4 120 33.75 119.5 32.65 118.85 38.25 109.5 31.75 106.15
Q 30.55 105.7 28.95 105.35 27.6 105.35 26.25 105.6 25.3 105.75 24.1 106.85 22.9 107.6 22.1 109 21.1 110.85 20.85 112.25 20.65 114 21 115.1 21.4 116.3 22.35 117.65
L 24.75 120 34.4 126
Q 36.05 126.85 37.7 127.1 39.3 127.55 40.9 127.4 42.3 127.35 43.5 126.35 44.45 125.7 45.15 124.95 45.65 124.45 46 123.85 47.95 120.25 47 117.6 46.55 114.8 42.7 112.25
M 27 110.4
L 28.35 110.4 30.1 111 33.2 112.85 30.2 117.35 27.35 115.5 26.25 114.15
Q 25.6 113.55 25.6 113 25.5 112.1 25.85 111.5 26.2 110.8 27 110.4
M 54.95 73.5
L 52.45 73.35
Q 50.95 73.35 49.95 74 48.55 74.55 47.5 75.75 46.15 77.45 45.5 78.6
L 45.25 81.5
Q 45.4 82.85 46.15 84.35 46.65 85.75 47.95 87.1
L 53 92.25
Q 54.55 93.65 56.25 94.85
L 59.15 96.6
Q 61.4 97.5 62.25 97.5 63.2 97.75 65.05 97 66.6 96.55 67.9 95 70.7 92.2 70.55 89 70.05 86.2 67 83
L 66.3 82.25 62.5 86.25 64.55 88.25 65.3 89.5 65.4 90.65 64.65 91.85
Q 64.35 92.5 63.65 92.5 63.05 92.75 62.5 92.5
L 61.25 92.1 55.75 87.35 63.3 79.4 62.75 79.1
Q 61.7 77.75 60 76.6
L 57.5 74.85
Q 56.85 74.35 54.95 73.5
M 50.7 78.9
Q 51.5 78.25 52 78.25 52.4 78.25 53.45 78.4
L 54.95 79.35 57.5 81.6 53.95 85.6 51.5 83.1 50.5 81.75
Q 50 80.9 50 80.25 50.35 79.35 50.7 78.9
M 39.5 85.25
L 36.4 89.35 50.5 104.4 32 95.1 28.85 99.25 54.15 110.85 57.5 106.5 39.5 85.25
M 83.8 79.4
L 87.9 76 72.65 58.4
Q 71.6 57.05 69.8 56.75 68.25 56.3 66.9 57.65 65.7 58.65 65 59.9
L 64.05 62.15 63.65 64.65 61.75 62.4 57.65 66 75.55 86.6 79.65 83 65.4 66.75 65.75 65.5 67 63.25
Q 68.1 62.35 68.65 62.75 69.8 63.05 70.4 64.1
L 83.8 79.4
M 98.8 38.25
Q 98.35 39.3 98.65 41.15 99 43.45 99.5 44.4
L 104.75 54.4 107.05 57.15
Q 108.4 58.6 109.55 58.9 110.8 59.45 112.4 59.45 113.95 59.45 115.9 58.4 119.15 56.55 120.05 53.65 120.8 50.8 119 46.75
L 118.5 45.9 113.55 48.4 114.9 50.75 115.15 52.2
Q 115.15 52.9 114.9 53.5
L 113.9 54.4
Q 112.95 54.85 112.55 54.7 111.85 54.7 111.55 54.4
L 110.4 53.4 109.55 52.15 106.9 47.4 116.5 42.4 116.3 41.65 114.5 38.65
Q 113.5 37 112.55 35.95 111.9 34.9 110.4 33.9 109.6 33.3 108.3 32.7 106.9 32.5 105.65 32.65 104.7 32.65 102.8 33.65 101.6 34.3 100.05 35.65 98.95 37.4 98.8 38.25
M 108.55 39.25
L 110.3 42.4 105.65 44.95 104.15 41.9 103.65 40.15
Q 103.45 39.25 103.8 38.65 104.05 38 104.9 37.65 105.65 37.25 106.25 37.4 106.7 37.4 107.55 38
L 108.55 39.25
M 86.8 46.65
L 83.8 46.2 82.15 46.4 80.65 47.15
Q 79.4 47.95 78.9 48.65 78.25 49.7 78.25 50.4
L 77.9 52.2 78.3 54.2 80.25 58.4 84.4 64.6
Q 85.25 66.15 87.05 67.75
L 87.1 67.8
Q 88.7 69.55 90 70.1 90.95 71.05 93.15 71.25 95 71.25 96.4 70.35 97.5 69.65 98.4 68.1
L 99.3 64.75 100.65 66.85 105.15 63.75 83.65 32.4 79.25 35.4 86.8 46.65
M 87.1 48.85
Q 87.65 48.7 88.3 48.65
L 98 62.75
Q 96.45 64.85 95 65.85 94.3 66.3 93.55 66.15 93.2 66.15 92.05 65.35
L 89.05 61.9 83.8 54.15 83.3 52.5
Q 83.1 52.05 83.3 51
L 84.25 50.15
Q 85.35 49.25 87.1 48.85
M 136.6 12.55
L 135.3 8.65 121.15 13.65 133.85 49.5 148 44.7 146.55 40.7 137.55 43.9 133.05 31.15 139.55 28.8 138.1 24.9 131.75 27.2 127.55 15.7 136.6 12.55
M 146.85 16.9
L 141.75 18.15 154.05 42.95 159.5 41.7 158.85 13.8 153.75 15.05 155.3 35.9 146.85 16.9
M 192.6 155.8
Q 193.6 154.65 196.85 154.65 198.15 154.8 204 155.05
L 213.1 155.05
Q 222.2 155.05 226.6 154.65
L 228.8 154.65
Q 229.55 155.55 229.85 157.65 230.1 160 230.35 160.35
L 230.8 162.3
Q 230.95 163.85 231.25 164.6
L 233.1 169.8
Q 233.65 171.05 234.55 172.15
L 236.05 174.35 237.55 177.55 241.75 183.3
Q 245.5 188.45 246.35 189.6 247.05 190.6 247.85 191.4 248.95 192.95 249.85 193.8
L 255 199.55
Q 255.9 201 257.85 202.3 260.6 204.6 262.75 206.8
L 263.45 207.4 265.5 208.8
Q 267.2 209.85 272.6 211 272.6 210.55 272.35 210.05 271.85 209.6 271.75 209.3
L 264.6 197.85
Q 264.15 196.9 263.45 195.85
L 260.1 189.05 259.7 187.8
Q 259.15 186.1 258.35 184.6 257.7 183.9 257.25 182.8 257.05 182.05 256.5 180.8 255.95 179.75 255.5 178.3
L 250.6 166.9
Q 249.8 165.25 249.5 163.8
L 248.85 161.6
Q 248.7 161.25 247.1 155.1
L 286.1 155.05 286.1 154.3 285.45 146.85
Q 285 145.75 285 144.35
L 279.1 100.15
Q 278.6 96.55 278.35 90.6
L 122.5 90.6
Q 121.65 94.45 121.3 99.85
L 120.05 108.75
Q 119.5 112.95 119.5 113.9
L 118 124.6
Q 117.8 124.8 117.8 125.35
L 114 155.05 120.9 155.4
Q 123.2 155.7 123.4 155.55
L 122.05 162.8
Q 121.7 167.6 121.15 172.1 120.9 173.85 120.9 175.8
L 119.5 186.3
Q 119.1 189.85 118.8 191.4
L 117.65 196.3
Q 121.85 198.1 127.5 197.8 135.9 197.55 143 197.85 144.4 198.15 145.6 197.85
L 164.85 198.05 166.8 186.85
Q 167.9 179.75 168.6 165.8 166.75 165.85 165.3 166.3 163.7 166.95 161.85 167.15
L 159.35 167.6
Q 158.8 167.95 156.25 168.4
L 147.8 170.65
Q 146.7 171.15 145 171.55
L 139.55 172.55
Q 137.25 172.85 137.75 169.05
L 138.75 158.55
Q 139.05 155.7 139.6 155.4 140.1 155.1 140.6 155.1 141.05 155.35 148.35 155.1
L 170.6 155.05
Q 171.9 156.55 171.8 160.05 171.7 160.8 171.85 162.8
L 171.85 163.35
Q 171.85 167.9 172.5 170.55 173.3 173.75 173.6 174.35
L 176.35 181.55
Q 176.85 182.3 177 183.4 177 184.65 177.85 186.05 178.4 187.55 178.85 187.8
L 180.85 191.65
Q 181.35 192.2 181.55 193.3
L 182.1 194.65 187.55 201.05
Q 190.25 201.35 192.6 200.8 194.7 200.05 195.6 199.3
L 196.6 198.65 200.35 196.85
Q 203.75 195.15 206.85 193.8 208.75 193.05 211.05 191.85
L 213.05 190.65 214.35 189.6
Q 215 189.45 215.85 188.8 216.75 188.4 217.1 188.05 217.65 187.55 218 187.3
L 227.3 182.05
Q 230.05 180.35 231.85 178.8
L 232.75 178.15
Q 233.55 177.85 234.35 177.05 235.4 175.95 234.35 175.55 231.5 173.75 229 174.8 226.3 175.85 223.6 176.05
L 219.5 176.6 216.1 177.55
Q 214.6 177.9 212.25 178.15
L 205.35 179.65
Q 204.35 179.95 204 179.9 203.7 179.9 203.6 179.8 203.1 179.45 203.1 179.05 201.4 176.6 200.1 174.05
L 199.1 172.4 198.6 171.8
Q 198.1 171.15 198 170.8
L 197.1 169.15
Q 195.1 165.95 194.35 162.3
L 193 156.55 192.6 155.8
M 233.6 107.6
Q 236.35 107.45 238.35 108.6 241.6 110.6 245.6 111.85 249.45 113.25 252.3 114.9 254 116.2 257.1 118 265.25 122.85 270.5 126.1 264.65 126.1 260.6 125.5
L 252.8 124.25
Q 248.9 123.8 245.6 122.5 244.45 123.5 244.1 125 244.1 126.25 243.85 127.4 243.6 127.95 243.6 128.8 243.45 131.75 243 133.9 242.5 138.35 243.3 141.05
L 244.05 142.85
Q 244.2 143.75 245.6 143.8
L 247.8 143.8
Q 253.55 143.8 257.75 144.05
L 258 144.05 255 145.05 249.85 147.8 248.6 148.05
Q 245.95 148.4 246.3 152.3 246.6 153.45 245.1 153.3 235.65 152.85 233.05 152.85 227.6 154.2 227.6 151.65
L 227.6 141.35
Q 227.6 139.1 227.85 137.8
L 228.1 133.55
Q 228.1 131.7 228.5 128.15
L 230.85 116.15
Q 231.75 111.25 233.6 107.6
M 202.5 106.9
Q 203.2 107.35 204 107.5 204.3 107.7 205.35 107.85 206.95 108.15 208.05 108.6 209.1 109.35 210.1 109.5
L 212.25 110.4
Q 213.1 111.1 215.25 111.15 213.85 112.45 211.05 112.25
L 195.35 111.85
Q 194.6 114.65 191.5 123.35
L 190.25 127.55
Q 189.7 129.6 189.55 132.4 189.35 135.55 192.6 134.8 201.15 134.35 203.8 134.05
L 192.6 140.3
Q 190.4 141.45 190.1 143.4 189.75 144.85 189.85 146.8 190.1 148.4 190.55 148.65 190.1 151.65 190.55 152.85
L 189.6 152.85
Q 179.15 152.85 173.35 152.55 172.95 152.55 172.8 152.15
L 172.8 151.55
Q 174.05 150 173.6 146.55
L 173.6 145.9
Q 174 140.25 175.1 136.05
L 175.1 135.1
Q 177.05 125.8 180.85 119.5 183.45 115.15 186.35 111.25 189.1 107.45 191.8 103.35 195.3 104.7 197.6 105.15 199.35 105.7 202.5 106.9
M 142.6 110.35
Q 141.85 112.25 142.1 115.35 142.1 118.1 141.8 120.35 140.9 127.85 140.1 140.15
L 139.1 150.1 139.1 150.8
Q 139.4 153.6 136.6 153.3 132.15 153.05 127.5 153.35 125.15 153.55 125.15 151.55 126.55 150 126.4 146.55
L 126.4 145.8
Q 129.1 137.55 129.85 127.55 129.9 125 130.85 121.75 131.8 118.5 132.6 112.5 132.75 110.85 133 109.75 133.25 107.5 136.6 108.1 137.3 108.35 138.1 108.35 141.4 107.75 142.6 109.25 143.05 109.9 142.6 110.35
M 167.6 12.6
Q 166.2 13.75 165.5 14.55 164.55 15.95 164.55 17.3 164.05 18.8 164.05 20.65
L 164.85 27.9
Q 165.3 30.5 165.8 31.9 166.1 33.5 166.85 35.15 167.85 36.95 168.75 37.75 169.65 38.65 171.3 39.15 172.85 39.7 174.8 39.25 178.8 38.65 180.35 36.2 182.05 33.45 181.55 29.4
L 181.5 28.45 176.05 29.15 176.35 30.15 176.25 33.25 175.5 34.45 174.1 34.95 173 34.75 172.1 34.15 170.85 31.3 170.1 25.8 180.85 24.2 179.35 17.05
Q 178.6 15.2 178.1 14.55
L 176.35 12.6
Q 175.15 11.65 173.85 11.55
L 170.8 11.55
Q 169.05 11.75 167.6 12.6
M 170.1 16.65
L 171.5 15.95
Q 172.2 15.95 172.8 16.15
L 173.85 17.3 174.55 18.9 175.1 22.4 169.75 23.05 169.5 21.8 169.5 17.95
Q 169.85 16.9 170.1 16.65
M 197.35 9.55
Q 195.5 9.55 194.5 10.05 193.15 10.75 192.5 11.3
L 190.5 13.05 190.35 10.05 185.05 10.3 185.85 37.45 191.35 37.4 190.6 15.8 191.6 14.9 192.6 14.4
Q 193.15 14.05 194.05 14.05 195.25 14.05 195.6 14.8 196.1 15.7 196.1 16.7
L 196.85 37.15 202.25 36.9 201.35 13.8
Q 201.35 11.75 200.35 10.65 199.2 9.55 197.35 9.55
M 218.8 10.6
L 214.6 10.3 215.25 0.9 209.8 0.55 209.25 10.05 206.55 9.9 206.35 13.9 209.05 14.1 208 31.15
Q 208 34.55 209.25 36 210.65 37.85 213.6 38
L 217.25 37.9 217.5 33.65 215.5 33.65
Q 214.25 33.65 213.85 32.7 213.35 31.8 213.35 30.3
L 214.55 14.4 218.5 14.8 218.8 10.6
M 239.85 13.35
L 234.5 12.6 228.35 30.9 227.85 11.55 222.35 10.8 224.85 37.45 224.25 39.25
Q 224 40.05 223.5 40.4 222.75 40.9 222 40.9
L 219.35 40.7 218.8 44.7 219.35 44.75
Q 223.35 45.5 225.5 44.4 227.85 43.85 229.05 40.7
L 239.85 13.35
M 247.6 24.2
Q 248.1 22.75 249.25 22.05 250.45 21.25 252.1 21.55 253.7 22.05 254.85 22.9
L 256.35 17.05 255.5 16.7
Q 253.65 16.3 251.85 17.05 250.3 17.8 248.8 19.3
L 249.6 15.7 244.35 14.4 238.05 40.95 243.35 42.4 247.6 24.2
M 308.75 46.65
L 315.35 36.2 323.45 41.4 325.6 37.9 312.95 29.8 292.5 61.9 297.1 65 306.6 49.9 312.35 53.65 314.6 50.15 308.75 46.65
M 285.1 43.9
Q 286.65 42.2 288.2 39.25
L 282.95 37.15 280.5 41.15
Q 279.65 42.65 279.25 42.9
L 277.25 33.25 282.2 30.9
Q 283.35 30.45 284.6 29.3
L 286.75 27.2
Q 287.85 25.75 288.25 24.7 289.55 21.65 288.2 18.9 286.6 16 283.5 14.8 280 13.3 277.1 14.8 274.2 16.05 272.75 19.55 272.25 20.8 272 22.65 271.7 23.7 271.7 25.4
L 272.25 31.15
Q 265.1 33.7 263 39.15 261.5 42.75 262.6 45.65 263.75 48.65 267.25 50.15 269.9 51.3 272.1 51 273.85 51 276.2 49.9
L 276.6 50.65 276.85 51.5 278.1 53.65 280.25 55.65 281 55.9 283.45 50.65
Q 281.9 50.15 281 47.45 283.05 45.95 285.1 43.9
M 276.85 24.55
L 277.75 21.8
Q 278.3 20 279.5 19.3 280.4 18.6 281.85 18.9 283.15 19.65 283.45 20.4 283.7 21.65 283.25 22.45 282.3 24.8 280.35 26.9 278.05 29.05 276.5 30.05
L 276.85 24.55
M 269 46.15
Q 267.7 45.6 267.5 44.15 267.25 43.3 268 41.15 269.05 38.95 270 38 271 36.95 272.6 35.65 272.55 36.25 272.75 37.15
L 274.35 45.45
Q 271.1 47.05 269 46.15
M 391.35 133.6
L 389.1 128.8 364.35 140.05 366.7 145.1 391.35 133.6
M 392.75 127
L 395.2 131.85 400 129.6 397.7 124.75 392.75 127
M 373 113.1
Q 371.9 113.95 371.35 114.6 370.65 115.3 370.25 116.25
L 369.7 118.1 368.6 126.65
Q 368.15 128.25 366.5 129.3 365.4 130.1 364.35 129.8 363.4 129.55 362.75 128.3 361.45 125.95 364.35 122.75
L 361.1 119.85
Q 358.8 122.15 357.95 124.85 357.3 127.7 358.85 130.55 360.65 133.75 363.5 134.85 366 135.9 369.2 134.05 370.35 133.45 371 132.8 372 131.6 372.25 130.9
L 373 129.1 374.35 120.15
Q 374.5 118.6 375.75 118 377 117.45 377.85 117.6 378.85 118.05 379.5 119 379.75 120 379.75 120.5 379.75 121.1 379.5 122
L 378.85 123.35 377.85 124.6 381 127.4
Q 382 126.75 382.95 125.15 383.75 124.15 384.25 122.75 384.55 121.45 384.35 119.85 384.15 118.3 383.35 116.75 381.25 113.4 378.85 112.5 376.15 111.6 373 113.1
M 371.7 98.25
Q 369.05 95.05 366.25 94.75 362.8 94.3 359.85 96.5
L 363.1 100.9 363.5 100.5
Q 365.4 99.6 366.25 99.6 367.5 99.6 368.2 100.6 368.9 102.05 368.5 103 367.9 104.25 366.1 105.35
L 364.6 106.5 361.25 104.35 358.5 103
Q 356.8 102.1 355.5 102.1 353.65 102.1 352.5 102.4 350.8 103.1 349.2 103.9 347.25 105.55 346.5 107.85 345.7 110.35 347.1 112.15
L 348.25 113.25 349.6 114 352.35 114.15 353.85 114 351 117.1 354 121.35
Q 355.8 119.35 359.35 116.85
L 369.35 109.85
Q 372.45 107.45 373.2 104.4 373.75 101.4 371.7 98.25
M 359 107.4
L 361.75 108.6 355.6 113 355.35 113 353.25 112.5
Q 352.6 112.05 352.35 111.75 350.5 109.65 353.6 107.75 353.8 107.35 354.95 107.1
L 356.25 106.85 359 107.4
M 341.25 94.15
Q 338.75 96.5 338.35 98.5 338 100.95 340.2 103.25 341.15 104.6 342.6 105.6
L 345.85 102.85 344.6 101.5
Q 343.7 100.6 344 99.6
L 345.5 97.6 357.6 87.35 360.25 90.5 363.5 88 360.75 84.6 368.1 78.5 364.45 74.4 357.1 80.6 355.5 78.5 352.25 81.15 354 83.35 341.25 94.15
M 332.2 59.15
Q 332.05 56 328.85 53.5 325.95 51.3 322.6 51.65 319.6 52.25 317.2 55.25
L 321.5 58.65 321.95 58
Q 322.95 56.75 324.1 56.4 325.2 55.95 326.2 56.9 327.5 57.65 327.25 59.15 326.95 60.4 325.75 61.9
L 324.5 63.4 317.75 61.9
Q 315.75 61.85 314.6 61.9
L 311.85 62.95
Q 310.1 64.1 309.1 65.5 307.6 67.6 307.6 69.85 307.6 72.5 309.45 74
L 311 74.75
Q 311.45 75 312.35 75
L 313.85 74.85 316.5 73.85 314.6 77.4 319 80.75
Q 319.9 78.1 322.5 75
L 330.1 65.25
Q 332.45 62.55 332.2 59.15
M 314.25 67.75
Q 314.75 67.15 315.5 66.75
L 316.7 66.15 318.2 66 322.35 66.25 317.6 72.35 316.5 72.5 315.5 72.5 314.45 72
Q 312.1 70.5 314.25 67.75
M 346.95 69.85
L 344.6 69.25
Q 343.6 69.15 342 69.15
L 344.1 67.1 340.2 63.25 321.2 82.75 325.1 86.6 340 71.1 342.6 71.6 343.7 72.4
Q 344.65 73.15 344.35 74 344.35 74.65 343.25 75.75
L 329 90.35 332.95 94.15 349.1 77.5
Q 350.5 76.25 350.5 74.6 350.65 72.75 349.35 71.6 348 70.4 346.95 69.85 Z"/>
</g>
</defs>

<g transform="matrix( 1, 0, 0, 1, 0,0) ">
<use xlink:href="#Layer0_0_FILL"/>
</g>
</svg>
