
<svg xmlns="http://www.w3.org/2000/svg" version="1.1" xmlns:xlink="http://www.w3.org/1999/xlink" preserveAspectRatio="none" x="0px" y="0px" width="400px" height="400px" viewBox="0 0 400 400">
<defs>
<g id="Layer0_0_FILL">
<path fill="#000000" stroke="none" d="
M 384.35 19.45
Q 384.35 17.5 384.35 15.55 362.05 38.25 340.3 61.55 339.35 62.55 337.35 62.55 294.1 23.6 223.8 12.05 221.85 11.65 219.9 11.65 217.95 11.65 215.95 11.65 198.35 11.65 180.75 11.65 137.45 19.25 103.95 37.85 30.35 78.6 8.4 172.15 7.735546875 177.3580078125 6.9 180.95
L 46.1 189.9 50.95 164.5
Q 51.8146484375 157.94296875 53.85 152 84 65.65 185.05 53.9 229.7 48.85 261.6 62.15 269.8 65.45 278.65 70.35 296.45 79.95 309.95 93.85 285.3 124 258.05 151.6 257.1 152.6 255.15 152.6 265.9 159.45 286.45 158.45 335.4 156.5 384.35 156.5 384.35 88 384.35 19.45
M 394.65 218.65
Q 396.9404296875 206.6494140625 397.35 202.55
L 363.65 196.25 354.95 224.75
Q 354.8955078125 224.7123046875 354.85 224.65 354.7880859375 225.8802734375 354.4 227.4 329.15 318.6 242.6 345.65 233.6 348.35 223.4 350.35 195.4 355.2 176.8 348.35 174.85 348.35 172.9 348 117.7 337 86.75 301.4 86.75 299.4 87.7 298.25 112.2 268.1 137.65 238.75
L 137.65 236.8
Q 75 234.8 12.35 234.8 12.35 309.2 14.3 383.6
L 16.25 383.6
Q 37.2 359.55 56.6 333.7 57.35 332.7 59.35 332.7 101.8 376.35 176.6 388.9 232.8 398.5 275.9 378.5 355.94609375 341.5009765625 372.05 296 388.158984375 250.49609375 390.25 240.55 392.396484375 230.65390625 394.65 218.65 Z"/>
</g>
</defs>

<g transform="matrix( 1, 0, 0, 1, 0,0) ">
<use xlink:href="#Layer0_0_FILL"/>
</g>
</svg>
