
<svg xmlns="http://www.w3.org/2000/svg" version="1.1" xmlns:xlink="http://www.w3.org/1999/xlink" preserveAspectRatio="none" x="0px" y="0px" width="500px" height="500px" viewBox="0 0 500 500">
<defs>
<g id="Layer0_0_FILL">
<path fill="#000000" stroke="none" d="
M 365.85 187.7
Q 351.75 169.7 338.55 150.8 325.15 131.65 312.4 112.55 299.35 93.1 287.75 72.7 276.2 52.55 266.65 31.2 259.2 14.75 250.1 0 249.45 0.5 249.05 1.05 242.7 11.6 237.4 23.35 227.95 44.7 217.05 65.1 205.85 86.1 193 105.15 179.9 124.6 166.6 143.8 153.4 162.6 139.55 180.85 125.15 199.35 110.5 217.55 96.05 235.5 82.95 254.85 70 273.9 61.2 296.25 56.75 307.6 54.45 319.9 53.1 326.9 50.8 332.55 50.8 346.35 51.6 360 53.2 387.2 64.3 407.45 75.8 428.15 94.15 443.4 94.7 443.95 95.25 444.45 111.45 461.35 134.3 473.25 157.05 485.1 185.7 492.8 214.05 500.4 252.7 500 290.4 499.6 318.35 491.75 346.65 483.9 368.5 471.35 379.75 464.9 389.7 457.7 409.2 443.35 423.65 425 437.85 406.9 444.9 383.5 448.65 371.35 449.1 357.15 450.15 327.55 441.6 304.35 433.55 282.05 421 262.2 408.7 242.8 394.6 224.5 380.3 206.2 365.85 187.7 Z"/>
</g>
</defs>

<g transform="matrix( 1, 0, 0, 1, 0,0) ">
<use xlink:href="#Layer0_0_FILL"/>
</g>
</svg>
