
<svg xmlns="http://www.w3.org/2000/svg" version="1.1" xmlns:xlink="http://www.w3.org/1999/xlink" preserveAspectRatio="none" x="0px" y="0px" width="400px" height="400px" viewBox="0 0 400 400">
<defs>
<g id="Layer0_0_FILL">
<path fill="#000000" fill-opacity="0.9882352941176471" stroke="none" d="
M 333.4 83.75
L 331.6 85.5 331.6 108.45 333.4 110.2
Q 354.55 214.3 243.4 240.75
L 241.65 240.75
Q 211.65 210.75 208.15 154.3
L 208.15 152.55
Q 213.45 129.6 231.05 122.55
L 231.05 119.05
Q 245.2 87.3 224 64.35
L 222.25 64.35
Q 195.8 46.7 172.85 69.65
L 172.85 71.4
Q 153.45 112 185.2 133.15
L 187 134.9
Q 197.55 205.45 153.45 242.5
L 151.7 242.5
Q 67.05 219.55 56.45 133.15
L 56.45 131.4
Q 79.4 113.75 67.05 76.7
L 67.05 74.95
Q 24.7 32.6 0 89.05 5.3 131.4 30 143.75
L 31.75 145.5 67.05 339.5 67.05 341.25
Q 241.65 344.8 329.85 343.05
L 331.6 343.05
Q 354.55 212.5 373.95 138.45
L 375.7 138.45
Q 411 120.8 395.1 73.2
L 395.1 71.4
Q 358.05 36.15 333.4 83.75 Z"/>
</g>
</defs>

<g transform="matrix( 1, 0, 0, 1, 0,0) ">
<use xlink:href="#Layer0_0_FILL"/>
</g>
</svg>
