
<svg xmlns="http://www.w3.org/2000/svg" version="1.1" xmlns:xlink="http://www.w3.org/1999/xlink" preserveAspectRatio="none" x="0px" y="0px" width="400px" height="400px" viewBox="0 0 400 400">
<defs>
<g id="Layer0_0_MEMBER_0_FILL">
<path fill="#000000" stroke="none" d="
M 161 -87
Q 160.5 -87 160 -87 151 -87 142 -87 136.85 -85.15 131 -83.9 129 -83.5 127.6 -82.9 120.55 -79.95 115.45 -75.7 109.35 -70.65 106.05 -63 97.1 -42.4 88.85 -21.05 80.65 0.15 72.3 21.75 64.2 42.7 56 64 43 64 30 64 0.5 64 -29 63.2 -45.3 62.7 -57.1 65.55 -59 66 -60.7 66.7 -81.1 75.4 -89 97 -89 126.5 -89 156 -89 185.5 -89 215 -89 244.5 -89 274 -89 303.5 -89 333 -89 334 -89 335 -81.1 356.6 -60.75 365.45 -59.5 366 -58.1 366.35 -55.5 367 -53 368 -23.5 368 6 368 35.5 368 65 368 94.5 368 124 368 153.5 368 183 368 194 368 205 368 205 367.5 205 367 229.75 362.25 238.1 341.05 242.3 330.3 241.7 313.95 241 294.5 241 275 251.3 279.7 262.65 283.9 267.75 285.75 273.05 287.8 281.1 290.9 293 290.5 308 290 317.25 284.4 327.55 278.05 333.7 267.85 337.9 260.9 340.75 252.25 342.5 247 344.45 241.8 352.6 220.1 361.15 199.05 369.65 178.15 377.9 156.35 381.85 145.85 386 135 394.1 113.6 402.4 92.15 408.6 76.1 415 60 415 59.5 415 59 415 46.5 415 34 407.95 12.55 388.85 3.3 381.35 -0.35 373.25 -3.65 352.55 -12.05 331.15 -20.45 310.2 -28.7 289.05 -37.1 278.35 -41.35 267.4 -45.9 246.9 -54.4 225.3 -62.8 204.45 -70.95 183.2 -79.5 172.75 -83.75 161 -87
M 146 -8
Q 146 -8.5 146 -9 148.95 -17.05 155.15 -21.8 157.45 -23.55 160 -25 167.5 -25 175 -25 175.5 -25 176 -25 188.55 -21.55 192.45 -9.15 192.5 -9 193 -9 193.5 3.5 191.1 13.05 191 13.5 191 14 187.45 19.95 180.15 22.45 180 22.5 180 23 172.5 23 165 23 164.5 23 164 23 152 19.5 146.6 9.2 146.5 9 146 9 146 0.5 146 -8
M 349.4 48.8
Q 349.5 49 350 49 350 58 350 67 350 67.5 350 68 347.25 75.25 342.25 80.25 342 80.5 342 81 333.8 84.8 321 84.05 320.5 84 320 84 307.95 80.5 302.6 70.2 302.5 70 302 70 302 61.5 302 53 302 52.5 302 52 305.15 44.15 311.45 39.6 314.15 37.65 317 36 341.55 33.95 349.4 48.8
M 165.35 71
Q 165.5 79.5 162.2 85.1 159.35 89.85 155 93 146.65 94.65 136.05 93.4 128.95 92.55 124.15 88.8 119.45 85.05 117 79 117 72.5 117 66 117 65.5 117 65 120.4 52.9 130.8 47.6 131 47.5 131 47 164.85 42.65 165.35 71
M 308.8 110.6
Q 318.3 114.2 322 124 325.6 157.05 295 156.05 293 156 291 156 282.65 152.85 276.75 147.25 276.5 147 276 147 275 144 273.6 141.2 273.5 141 273 141 273 133.5 273 126 273 125.5 273 125 276.3 114.8 284.8 109.65 285 109.5 285 109 297.9 106.45 308.8 110.6
M 257.8 180.6
Q 258 180.5 258 180 282.5 178 291.75 191.15 292 191.5 292 192 293.65 200.35 293.05 211 293 211.5 293 212 288.65 220.65 281.8 226.75 281.5 227 281 227 273.5 228.5 264 228 263.5 228 263 228 251.6 223.9 245.65 214.2 245.5 214 245 214 243.8 207.7 244 200 244 199.5 244 199 247.05 186.05 257.8 180.6
M 14 147
Q 14 147.5 14 148 10.65 157.2 1.15 160.45 1 160.5 1 161 -8.5 161 -18 161 -18.5 161 -19 161 -28.3 157.8 -31.45 148.15 -31.5 148 -32 148 -32 137.5 -32 127 -32 126.5 -32 126 -24.25 112.75 0 115.95 0.5 116 1 116 9.75 119.25 13.4 127.8 13.5 128 14 128 14 137.5 14 147
M 2 194
Q 2.5 194 3 194 9.1 196.9 12.4 202.8 12.5 203 13 203 14.6 212.4 14 224 14 224.5 14 225 10.6 232.1 4.8 236.75 4.5 237 4 237 -6.3 238.65 -19 238.05 -19.5 238 -20 238 -28.85 234.85 -31.45 225.15 -31.5 225 -32 225 -32 215 -32 205 -32 204.5 -32 204 -29.7 198.3 -24.2 195.6 -24 195.5 -24 195 -12.15 193.35 2 194
M 136.45 132.85
Q 136.5 133 137 133 137 141 137 149 137 149.5 137 150 133.6 161.1 123.2 165.45 123 165.5 123 166 114.5 166 106 166 105.5 166 105 166 94.4 162.6 89.6 153.2 89.5 153 89 153 89 144.5 89 136 89 135.5 89 135 92.2 125.7 99.75 120.65 100 120.5 100 120 107.95 118.45 117.9 119.85 122.5 120.5 126.7 122.55 130.55 124.45 134 127 135.35 129.65 136.45 132.85
M 135.95 284
Q 136 283.5 136 283 138.3 275.3 144.8 271.6 145 271.5 145 271 156.35 269.35 170 270 170.5 270 171 270 176.55 271.95 180.25 275.75 180.5 276 181 276 185.25 285.25 183.4 299.95 182.55 307.05 179 312 168.55 317.55 151 316.05 150.5 316 150 316 132.7 310.3 135.95 284
M 13.45 282.85
Q 13.5 283 14 283 14 292.5 14 302 14 302.5 14 303 10.7 312.7 0.1 315.45 0 315.5 0 316 -11.6 316.6 -21 315.1 -21.5 315 -22 315 -28.65 311.15 -31.45 303.15 -31.5 303 -32 303 -32 293 -32 283 -32 282.5 -32 282 -29.6 274.9 -23.2 271.6 -23 271.5 -23 271 -12.1 269.4 1 270 1.5 270 2 270 10.45 273.55 13.45 282.85 Z"/>
</g>
</defs>

<g transform="matrix( 0.7738037109375, 0, 0, 0.773834228515625, 74.55,86.6) ">
<use xlink:href="#Layer0_0_MEMBER_0_FILL"/>
</g>
</svg>
