
<svg xmlns="http://www.w3.org/2000/svg" version="1.1" xmlns:xlink="http://www.w3.org/1999/xlink" preserveAspectRatio="none" x="0px" y="0px" width="500px" height="500px" viewBox="0 0 500 500">
<defs>
<g id="Layer0_0_FILL">
<path fill="#000000" stroke="none" d="
M 490.6 156.95
Q 490.85 156.6 491.55 156.6 491.55 155.9 491.55 155.2 474.35 138.75 457.55 121.9 437.3 101.65 417.05 81.4 396.75 61.15 376.5 40.85 356.25 20.6 336.3 0 335.65 0 334.95 0 334.95 0.7 334.6 1 315.4 17.55 299.25 37.1 299.25 37.75 299.55 38.05 306.3 43.8 311.6 50.8 308.85 54.25 305.75 57.35 285.5 77.6 264.9 97.55 255.95 87.9 246.7 78.65 226.45 58.4 205.8 38.45 205.8 39.15 205.5 39.45 186.25 56.65 170.1 76.9 170.1 77.6 170.45 77.95 188.8 95.3 205.8 114 202.55 119 198.35 123.05 177.65 142.85 157.4 163.1 137.15 183.4 117.15 203.9 96.8 224.75 75.6 244.8 63.95 255.8 55.55 269.7 47.65 282.75 47.8 303.55 47.85 307.7 48.95 311.5 58 342.2 71.15 369.55 73.6 374.6 72.55 376.35 66.5 384.05 59.7 391 39.6 411.4 19 431.3 19 465.65 19.7 500
L 20.35 500
Q 20.35 499.3 20.35 498.6 41 478.7 61.25 458.45 81.5 438.2 101.45 417.6 102.1 416.9 102.8 416.2 132.45 427.05 160.55 439.35 167.85 442.55 175.6 445 193.6 450.7 211.35 445.2 238.25 436.95 254.3 417.95 268.15 401.6 283.5 386.7 304.05 366.75 324.3 346.5 344.55 326.25 364.85 305.95 372.75 298.05 380.3 289.85 396.4 299.8 408.15 314.2 408.45 314.55 409.15 314.55 419.6 307.15 428.15 297.85 437 288.2 446.2 278.85 426.3 258.25 406.05 238 396.75 228.7 387.15 219.8 406.8 198.9 427.9 179.45 431.1 176.5 433.85 173.1 444.35 181.85 453.45 191.95 453.75 192.3 454.45 192.3 474.5 176.65 490.6 156.95 Z"/>
</g>
</defs>

<g transform="matrix( 1, 0, 0, 1, 0,0) ">
<use xlink:href="#Layer0_0_FILL"/>
</g>
</svg>
