
<svg xmlns="http://www.w3.org/2000/svg" version="1.1" xmlns:xlink="http://www.w3.org/1999/xlink" preserveAspectRatio="none" x="0px" y="0px" width="400px" height="400px" viewBox="0 0 400 400">
<defs>
<g id="Layer0_0_FILL">
<path fill="#000000" stroke="none" d="
M 332.6 118
Q 332.6 117.5 332.7 117 335.2 101.65 331.6 88.2 327.65 83.15 321.7 80.15 318.1 78.3 313.85 76.8 312.2 76.25 310.55 75.85 308.25 75.25 306.15 74.4 298.979296875 71.2349609375 287.05 70.55 284.492578125 69.8041015625 281.9 69.3 274.3 68.45 267.15 66.7 261.1 65.3 254.05 64.35 254.05 63.85 254.05 63.35 254.35 37.2 253.1 12.65 252.6 12.65 252.35 12.4 249.6 9.65 247.1 6.7 235.5 5.9 223.25 5.85 193.95 5.7 164.65 5.05 148.85 4.65 139.8 8.7 137.2 11.05 136.8 15.65 135.65 29.4 136.3 44.45 136.8 56.4 133.8 64.35 133.3 64.3443359375 132.3 64.7 131.3498046875 65.06640625 113.1 69.15 109.28125 70.10078125 107.05 70.5 104.806640625 70.962109375 103.2 71.4 101.65 71.8859375 99.85 72.55 98.0490234375 73.20234375 83.55 76.8 69.112109375 80.4626953125 61.25 89.2 61.25 89.7 61.25 90.2 61.25 104.1 61.25 118 68.75 126.95 82 130.5 83.65 130.95 85.25 131.25 92.65 132.85 98.35 134.7 101.5 135.9 104.8 136.65 112.4 138.45 120.95 139.35 125.85 139.85 130.65 140.8 135.4 141.7 141.7 142.45 151 143.55 162.65 143.8 190.4 144.4 220.3 143.7 223.05 143.65 225.25 143.65 240.9 143.6 254.1 142.05 256.0490234375 141.8470703125 257.65 141.65 259.25234375 141.4615234375 268.4 140.65 277.547265625 139.8294921875 283.1 138.45 288.6509765625 137.0732421875 294.1 135.55 297.85 134.4 299.8 133.9 304.9 132.55 310.5 131.15 311.2 130.95 311.9 130.75 325.45 127.25 332.6 118
M 228.25 30.55
Q 229.9 37.3 229.8 46.45 229.7 55.9 229.25 62.35 216 64.05 200.4 63.75 181.05 63.35 161.65 62.85 161.15 62.85 160.65 62.35 158.95 55.1 159.6 45.45 159.65 44.95 159.65 44.45 161.4 38.75 161.15 30.55
L 161.65 30.55
Q 167.35 28.8 175.55 29 201.4 29.55 227.25 30.05 227.75 30.05 228.25 30.55
M 305.75 165.75
Q 301.35 167.75 295.75 168.45 293.8 168.7 292.15 169.4 288.9 170.75 284.85 170.9 272.55 171.3 262.05 172.85 243.3 175.8 220.3 175.3 190.95 174.65 161.65 174.8 146.5 174.9 132.95 173.05 129.85 172.65 126.85 172.6 116.75 172.35 108.95 170.9 102.55 169.65 96.9 168.2 95.05 167.7 93.3 167.05 90.4 165.9 87.05 164.95 86.1 164.7 85.55 164.2 82 161.15 78.15 162.75 78.15 176.15 78.5 189.55 79.3 217.75 81.15 245.2 81.35 248 81.35 250.2 81.5 280.15 84.05 306.85 84.4 310.55 84.4 313.8 84.45 329.4 85.7 342.65 86.1 346.6 86.8 350.45 88.4 359.2 89.1 369.45 91.05 369.5 91.7 370.65 92.1 371.45 92.6 372 96.4 376.05 101.3 378.85 108.45 382.95 116.1 385.95 120.5 387.75 125.65 389.05 126.85 389.35 128 389.55 134.85 390.8 140.8 392.25 146.8 393.75 153.7 394 168.4 394.5 182.5 394.8 211.95 395.4 240.15 394.35 242.15 394.3 243.9 393.6 251.4 390.65 263 391.3 266.3 389.65 270.05 388.75 274.35 387.75 277.95 386.45 294.25 380.85 304.75 369.45 304.75 367.95 305.1 366.6 305.25 366 305.45 365.4 309.1 353.9 308.85 338.65 308.6 323.6 310.4 309.95 312.1 297.3 311.85 282 311.35 252.35 314.05 226.3 315.5 212.25 315.2 197.5 314.95 185.85 316.45 176.6 317.8 168.05 314.7 163.75 311.2 163.25 305.75 165.75 Z"/>
</g>
</defs>

<g transform="matrix( 1, 0, 0, 1, 0,0) ">
<use xlink:href="#Layer0_0_FILL"/>
</g>
</svg>
