
<svg xmlns="http://www.w3.org/2000/svg" version="1.1" xmlns:xlink="http://www.w3.org/1999/xlink" preserveAspectRatio="none" x="0px" y="0px" width="400px" height="400px" viewBox="0 0 400 400">
<defs>
<g id="Layer0_0_FILL">
<path fill="#000000" fill-opacity="0.996078431372549" stroke="none" d="
M 358.5 74.8
L 327.75 44.05 287.2 63.45
Q 276.65 61.7 271.35 52.85
L 272.3 12.25 257.3 6.7 230.85 0 227.3 0 202.65 38.75 197.35 40.55 195.6 40.55 185 38.75 160.35 5.3 158.6 1.75 155.05 1.75 144.5 5.3 116.3 17.65 118.05 61.7 103.95 72.25 98.65 72.25 79.3 63.45
Q 68.7 58.15 58.15 58.15
L 31.7 89.85 33.45 89.85 58.15 125.1 58.15 126.9
Q 56.4 139.2 47.55 149.8 24.75 155.5 5.3 158.6
L 3.5 158.6 0 195.6 12.8 201.15
Q 24.65 206.15 42.3 216.75
L 45.8 241.4 14.1 271.35 26.4 299.55
Q 29.95 306.6 30.75 309.1
L 75.75 299.55 77.5 299.55 95.15 318.95 86.35 361.25 119.8 382.4 153.3 350.65 179.75 357.7
Q 193.8 394.7 195.85 400
L 197.35 400 234.35 396.5 236.1 396.5 244.9 354.2 250.2 350.65 267.85 343.6 280.15 350.65 304.85 370.05
Q 318.95 363 331.25 350.65
L 338.3 345.4 329.5 324.25
Q 324.2 303.1 324.2 301.35 326 294.3 334.8 285.45
L 336.55 283.7 380.6 287.25
Q 384.15 280.2 396.45 248.45
L 377.1 232.6 359.45 219.7 359.45 196.25
Q 366.5 192.1 376.05 188.55
L 400 179.75 389.4 133.95 383.75 133.95
Q 377.1 133.6 372.95 133.45 368.8 133.25 356.05 133.25
L 344.15 133.25
Q 341.8 130.15 336.55 114.55
L 358.5 74.8 Z"/>
</g>
</defs>

<g transform="matrix( 1, 0, 0, 1, 0,0) ">
<use xlink:href="#Layer0_0_FILL"/>
</g>
</svg>
