
<svg xmlns="http://www.w3.org/2000/svg" version="1.1" xmlns:xlink="http://www.w3.org/1999/xlink" preserveAspectRatio="none" x="0px" y="0px" width="400px" height="400px" viewBox="0 0 400 400">
<defs>
<g id="Layer0_0_FILL">
<path fill="#000000" stroke="none" d="
M 77.7 39.4
L 4.15 39.4 4.15 58.05 47.65 58.05 0 128.5 0 140.9 78.8 140.9 78.8 121.25 30.05 121.25 77.7 51.8 77.7 39.4
M 147.15 12.5
L 147.15 0 73.6 0 73.6 18.65 118.2 18.65 69.45 89.1 69.45 101.6 148.25 101.6 148.25 81.85 99.5 81.85 147.15 12.5 Z"/>
</g>

<path id="Layer0_0_1_STROKES" stroke="#000000" stroke-width="10" stroke-linejoin="miter" stroke-linecap="butt" stroke-miterlimit="10" fill="none" d="
M 169.95 49.7
L 342.05 49.7
Q 364.75 49.7 380.35 66.35 396.9 81.85 396.9 103.7
L 396.9 346.1
Q 396.9 367.85 380.35 384.5 364.75 400 342.05 400
L 100.5 400
Q 77.7 400 62.2 384.5 46.65 367.85 46.65 346.1
L 46.65 162.7"/>
</defs>

<g transform="matrix( 1, 0, 0, 1, 0,0) ">
<use xlink:href="#Layer0_0_FILL"/>

<use xlink:href="#Layer0_0_1_STROKES"/>
</g>
</svg>
