
<svg xmlns="http://www.w3.org/2000/svg" version="1.1" xmlns:xlink="http://www.w3.org/1999/xlink" preserveAspectRatio="none" x="0px" y="0px" width="400px" height="400px" viewBox="0 0 400 400">
<defs>
<g id="Layer0_0_FILL">
<path fill="#000000" stroke="none" d="
M 384.95 88.2
Q 384.65 88.2 384.6 88.1 383.5 84.85 380.5 83.7 375.8 83.2 373.45 84.95 370.8 86.8 368.65 89.1 359.4 98.75 350.25 108.4 341.05 118.05 330.65 126.5 326.1 125.65 321.7 124.55 320.2 124.2 319 123.95 303.1 120.55 289.1 115.65 287.95 110.45 286.6 105.45 285.15 100.15 283.85 95.1 281.8 87.2 279.1 80.05 277.65 76.05 278.25 72.85 279.85 70.95 281.6 69.2 291.05 59.75 300.45 50.35 309.9 40.9 319.15 31.3 321.95 28.4 320.4 24.3 320.4 23.95 320.3 23.7 318.65 20.35 314.65 19.2 302.15 18.8 291.65 20.5 283.45 21.85 276.8 24.5 263.1 29.9 252.8 38.45 242.45 46.95 235.1 58.55 227.8 70 224.35 85.1 222.5 93.15 222.35 102.25 222 121.1 227.75 134.2 219.55 141.3 211.8 148.9 210.7 150 209.55 151.1 199.9 160.3 190.05 169.35 186.25 165.8 182.55 162.15 173.15 152.7 163.7 143.3 154.3 133.85 144.85 124.45 135.45 115 126.2 105.45 127.15 101.65 132.6 101.9 132.9 101.9 133.25 101.8 147.15 96.7 156.6 87.35 159.05 84.95 161.5 82.65 171.2 73.45 180.7 64.15 183.15 61.75 184.95 58.8 175.7 49.2 166.25 39.8 156.85 30.35 147.4 20.95 138 11.5 128.35 2.35 127.35 1.4 126.8 0 126.5 0 126.2 0 119.8 6.7 113.1 13.1 103.45 22.3 94.75 32.5 90.35 37.65 86.9 43.65 83.1 50.35 82.7 57.5 80.05 58.4 78.05 59.8 77.6 60.05 77.2 60.35 70.35 65.3 63.95 70.7 53.7 79.3 50.15 94.55 48.15 96.75 46.35 99.1 38.05 109.6 31.75 122.1 25.4 134.7 21.85 149.6 21.4 151.45 20.95 153.25 19.15 160.7 19.35 170.6 19.45 175.4 19.95 180.15 20.75 188.5 22.2 196.25 23.7 204.7 28.4 209.6 28.75 209.6 29 209.7 32.15 210.95 35.45 209.6 38.8 207.2 39.3 201.9 41 184.8 47.85 173 48.85 171.25 49.95 169.6 57.4 158.4 67.75 149.95 78.15 141.45 92.3 136.75 96.2 140.85 100.15 144.85 109.55 154.35 118.9 163.8 128.3 173.3 137.95 182.45 147.65 191.65 156.2 201.9 155.25 203.2 154.1 204.3 144.45 213.5 134.75 222.65 125.05 231.8 115.65 241.2 114.65 242.2 113.75 243.15 104.6 252.9 94.55 261.7 94.25 262 93.9 262.25 84.25 271.5 74.8 280.9 65.4 290.35 55.5 299.35 53 301.6 50.5 303.85 40.5 312.7 31.55 322.65 31.3 323 30.95 323.25 20.2 331.4 15.45 345.2 14.15 349 13.1 352.7 12.35 372.25 21.65 381.85 22.9 383.15 24.25 384.4 29.35 388.85 36.15 391.55 43.65 394.6 52.7 393.15 61.15 391.85 66.95 388.2 78.75 381 86.95 370.3 87.2 369.95 87.5 369.65 96.55 359.8 105.85 350.3 115.2 340.8 124.3 331.05 133.35 321.2 142.65 311.7 151.95 302.15 160.95 292.25 163.25 289.8 165.5 287.3 174.5 277.4 183.9 267.95 185.65 266.2 187.4 264.45 190.4 261.35 193.25 258.15 202.85 267.4 212.3 276.85 221.7 286.25 231.15 295.7 240.55 305.1 250 314.55 259.4 323.95 268.85 333.4 278.25 342.8 287.7 352.25 297.1 361.65 306.55 371.1 315.95 380.5 325.6 389.7 331.65 395.45 340.35 398.35 341.5 398.75 342.75 398.95 345 399.35 347.25 400 350.45 400 353.65 400 353.95 400 354.3 400 355.75 398.9 358.75 398.75 360.95 398.7 362.8 397.9 363.85 397.45 364.95 396.95 377.65 391.1 384 378.75 387.35 372.35 386.95 363 386.35 345.3 376.7 336.1 367.05 326.85 357.65 317.4 348.2 308 338.8 298.55 329.35 289.15 319.95 279.7 310.5 270.3 301.1 260.85 291.65 251.45 282.25 242 272.8 232.6 263.35 223.2 253.9 213.8 244.4 204.5 248.25 200.35 252.2 196.3 261.5 186.75 270.6 177 275.5 178.8 280.85 180.1 286.3 181.4 292.35 181.9 301.05 182.6 310.15 181.55 326.6 179.7 338.95 173.2 345.25 169.9 350.8 165.7 361.5 157.65 369.45 146.9 377.5 136 382 121.5 386.6 106.7 384.95 88.2 Z"/>
</g>
</defs>

<g transform="matrix( 1, 0, 0, 1, 0,0) ">
<use xlink:href="#Layer0_0_FILL"/>
</g>
</svg>
