
<svg xmlns="http://www.w3.org/2000/svg" version="1.1" xmlns:xlink="http://www.w3.org/1999/xlink" preserveAspectRatio="none" x="0px" y="0px" width="400px" height="400px" viewBox="0 0 400 400">
<defs>
<g id="Layer0_0_FILL">
<path fill="#000000" stroke="none" d="
M 0 38.3
L 199.5 380.85 400 38.3 0 38.3
M 212.6 133
L 212.6 145.1 166.25 212.6 213.6 212.6 213.6 231.75 136.05 231.75 136.05 219.65 183.4 151.15 141.05 151.15 141.05 133 212.6 133
M 203.55 193.45
L 203.55 181.35 250.9 112.85 208.55 112.85 208.55 94.75 280.1 94.75 280.1 106.8 233.75 174.3 281.1 174.3 281.1 193.45 203.55 193.45 Z"/>
</g>

<path id="Layer0_0_1_STROKES" stroke="#000000" stroke-width="0.75" stroke-linejoin="miter" stroke-linecap="butt" stroke-miterlimit="10" fill="none" d="
M 199.5 380.85
L 400 38.3 0 38.3 199.5 380.85 Z"/>
</defs>

<g transform="matrix( 1, 0, 0, 1, 0,0) ">
<use xlink:href="#Layer0_0_FILL"/>

<use xlink:href="#Layer0_0_1_STROKES"/>
</g>
</svg>
