
<svg xmlns="http://www.w3.org/2000/svg" version="1.1" xmlns:xlink="http://www.w3.org/1999/xlink" preserveAspectRatio="none" x="0px" y="0px" width="400px" height="400px" viewBox="0 0 400 400">
<defs>
<g id="Layer0_0_FILL">
<path fill="#000000" stroke="none" d="
M 0 34.5
L 199.45 377.05 400 34.5 0 34.5
M 258.9 72.75
L 259.95 72.75
Q 275.05 82.85 283.1 103
L 284.1 110.05 284.1 111.05
Q 287.15 119.1 285.1 131.2
L 284.1 131.2 284.1 132.2
Q 284.1 142.3 281.1 149.35
L 281.1 161.4 282.1 161.4 282.1 175.55
Q 277.05 194.65 257.9 195.7
L 254.9 197.7 254.9 199.7
Q 255.9 207.75 253.9 221.85
L 253.9 222.9
Q 251.85 238 246.85 247.05
L 245.8 247.05 235.75 258.15 234.75 258.15
Q 199.45 273.25 164.2 258.15
L 164.2 257.15 153.1 247.05 153.1 246.05
Q 143.05 226.9 144.05 196.7
L 143.05 196.7
Q 140.05 193.65 134 193.65
L 132.95 193.65
Q 122.9 189.65 117.85 176.55
L 117.85 175.55
Q 117.85 154.35 114.85 131.2
L 113.85 111.05 114.85 111.05 114.85 108.05
Q 120.9 84.85 139 72.75
L 140.05 72.75
Q 156.15 62.7 181.35 60.65
L 182.35 60.65
Q 182.35 58.65 185.35 58.65 203.5 56.65 215.6 59.65
L 216.6 59.65 228.7 60.65 228.7 61.7
Q 248.85 65.7 258.9 72.75
M 216.6 230.95
L 216.6 229.95
Q 231.7 226.9 234.75 212.8
L 233.75 212.8
Q 200.5 221.85 165.2 212.8
L 172.25 225.9 173.3 225.9 184.35 230.95 216.6 230.95
M 185.35 192.65
L 185.35 193.65
Q 194.45 204.75 213.6 197.7 210.55 179.55 199.45 171.5 192.4 178.55 185.35 192.65
M 186.35 135.25
L 180.35 128.2 179.3 128.2 175.3 126.15 161.2 126.15 161.2 127.15 155.15 129.2 155.15 130.2
Q 150.1 134.2 147.1 141.25
L 147.1 145.3 146.05 145.3 146.05 150.35
Q 148.1 162.45 155.15 166.45
L 156.15 166.45 159.15 169.5 175.3 170.5 175.3 169.5 181.35 167.45 181.35 166.45 187.4 161.4 187.4 160.4 190.4 154.35 190.4 153.35
Q 190.4 142.3 187.4 136.25
L 186.35 135.25
M 226.7 126.15
L 218.6 129.2 217.6 130.2 212.55 136.25 211.55 136.25 208.55 144.3 208.55 155.4 209.55 155.4 212.55 161.4 218.6 167.45 219.6 167.45 225.65 170.5 238.75 170.5 238.75 169.5 249.85 162.45 249.85 161.4 253.9 154.35 253.9 143.3
Q 249.85 130.2 235.75 125.15
L 226.7 125.15 226.7 126.15 Z"/>
</g>

<path id="Layer0_0_1_STROKES" stroke="#000000" stroke-width="0.75" stroke-linejoin="miter" stroke-linecap="butt" stroke-miterlimit="10" fill="none" d="
M 199.45 377.05
L 400 34.5 0 34.5 199.45 377.05 Z"/>
</defs>

<g transform="matrix( 1, 0, 0, 1, 0,0) ">
<use xlink:href="#Layer0_0_FILL"/>

<use xlink:href="#Layer0_0_1_STROKES"/>
</g>
</svg>
