
<svg xmlns="http://www.w3.org/2000/svg" version="1.1" xmlns:xlink="http://www.w3.org/1999/xlink" preserveAspectRatio="none" x="0px" y="0px" width="400px" height="400px" viewBox="0 0 400 400">
<defs>
<g id="Layer0_0_FILL">
<path fill="#000000" fill-opacity="0.996078431372549" stroke="none" d="
M 335.1 32.4
Q 345.9 17.3 356.15 1.6
L 356.7 0.7
Q 357 0.35 357 0
L 57 0 57 229.2 146.45 229.2
Q 148.45 233.45 148.3 239.7 147.6 259.35 147.6 283.9
L 147.6 372.3
Q 147.6 384.05 148 394.25 148 396.8 148.2 399.25 148.2 399.65 148.8 400
L 148.8 399.25 153.6 394.25
Q 165.8 381.3 174.5 371.5 185.9 358.65 198.3 345.3
L 199.95 343.6
Q 219.1 323.3 226.15 315.7 238.2 302.9 251.65 287.85
L 276.65 259.8
Q 287.15 247.95 302.15 231.9
L 328.3 204.1
Q 340.8 190.8 353.9 176.15 355.65 174.15 357 172.3
L 322.9 172.3
Q 286.5 172.3 253.5 172.7 243.7 172.85 237 171.5
L 238.2 171.5 238.2 170.1
Q 250.25 154.85 260.35 139.6
L 270.55 124.2
Q 280.25 109.2 291.45 93.4
L 335.1 32.4 Z"/>
</g>
</defs>

<g transform="matrix( 1, 0, 0, 1, 0,0) ">
<use xlink:href="#Layer0_0_FILL"/>
</g>
</svg>
