
<svg xmlns="http://www.w3.org/2000/svg" version="1.1" xmlns:xlink="http://www.w3.org/1999/xlink" preserveAspectRatio="none" x="0px" y="0px" width="200px" height="200px" viewBox="0 0 200 200">
<defs>
<g id="Layer0_0_FILL">
<path fill="#422004" fill-opacity="0.996078431372549" stroke="none" d="
M 339.15 -638.45
L 338.05 -639
Q 337.5 -639.55 336.4 -639
L 333.6 -638.45 328.05 -636.25
Q 324.1 -635.65 318.55 -632.3
L 319.65 -611.05 312.35 -606.1 310.15 -606.1 300.65 -610.55 291.15 -613.35
Q 282.2 -603.3 278.85 -597.65
L 291.15 -580.9
Q 289.45 -573.6 286.1 -569.75
L 265.45 -565.85 263.75 -552.4 263.75 -550.15 263.25 -547.95
Q 264.3 -544.55 267.7 -544.55
L 268.8 -544 283.3 -538.45 285.5 -526.7 285.5 -526.1 270.5 -512.15 270.5 -511.65
Q 271.05 -507.1 273.8 -502.65
L 276 -498.2 278.85 -494.85
Q 286.7 -495.4 299.55 -498.8
L 300.05 -498.8
Q 307.35 -491.5 308.45 -489.8 307.9 -482 305.1 -474.15
L 304.05 -469.1
Q 307.9 -465.25 315.7 -461.35
L 320.2 -459.05 335.85 -474.15
Q 342 -473.6 348.15 -471.35
L 348.65 -470.85 355.95 -451.8 356.5 -450.7 361 -450.7 361 -451.3 363.75 -451.3 374.4 -452.35 375 -452.35 379.4 -472.5 381.7 -474.15 390 -477.55 390.6 -477.55 396.15 -474.15 399.5 -471.35
Q 403.45 -467.45 407.95 -465.25 416.85 -470.85 420.75 -474.15
L 423.55 -476.95 416.85 -497.6
Q 418.5 -501.6 422.5 -505.45 429.15 -505.45 443.65 -504.35 449.25 -514.95 450.95 -522.8
L 441.95 -530.6 434.7 -535.6 433.65 -538.45 433.65 -544
Q 436.45 -548.5 440.85 -550.15
L 452.65 -555.8 452.65 -561.3 450.95 -569.75
Q 450.35 -574.2 447.6 -577
L 444.2 -577 441.45 -577.55 435.85 -577.55 433.65 -578.1 429.7 -578.1 428.6 -578.65
Q 424.65 -580.3 422.95 -585.95 427.45 -594.85 429.7 -597.65 431.95 -601.05 433.05 -605.5 424.1 -615.55 418.5 -620.05
L 418 -620.05 399.5 -609.95 399 -610.55
Q 393.95 -611.6 392.25 -615.55
L 391.75 -615.55 391.75 -631.2 391.2 -631.2 391.2 -634 390.6 -635.65 382.75 -638.45 372.7 -640.7 371 -640.7 368.25 -638.45 368.25 -637.9 367.15 -636.25
Q 362.65 -626.15 359.3 -621.7
L 350.95 -621.7 339.15 -637.9 339.15 -638.45
M 387.25 -575
Q 399.4 -562.85 399.4 -545.7 399.4 -528.55 387.25 -516.4 375.1 -504.25 357.95 -504.25 340.8 -504.25 328.65 -516.4 316.5 -528.55 316.5 -545.7 316.5 -562.85 328.65 -575 340.8 -587.15 357.95 -587.15 375.1 -587.15 387.25 -575 Z"/>
</g>

<g id="Symbol_1_0_Layer0_0_FILL">
<path fill="#411F03" stroke="none" d="
M 91.8 -58.75
Q 91.15 -64 90.95 -69.95
L -90.15 -69.95
Q -91 -65.95 -91.55 -59.1
L -92.95 -48.85
Q -93.65 -43.7 -93.65 -42.8
L -95.4 -30.45
Q -95.55 -30.2 -95.55 -29.55
L -96.45 -24.85
Q -97.2 -19.8 -97.3 -18.95
L -100 4.95
Q -99.2 4.95 -98.35 5 -95.35 5.05 -92 5.45 -89.25 5.75 -89.1 5.5 -88.75 4.2 -89.8 9.4
L -90.65 14
Q -91.1 19.5 -91.7 24.8 -92.05 26.9 -92.05 28.95
L -93.65 41.3
Q -94.15 45.85 -94.7 48.2
L -95.7 52.85
Q -90.9 54.95 -84.35 54.55 -75.35 54.4 -66.4 54.75 -64.65 54.85 -63.2 54.75
L -40.95 54.85 -38.7 41.9
Q -37.25 33.55 -36.6 17.35 -38.9 17.6 -40.45 18.1 -42 18.65 -44.3 19.05
L -47.25 19.6
Q -48.1 19.95 -51 20.5 -54.15 21.2 -56 21.85
L -60.75 23.1
Q -62.6 23.8 -64.05 24.15
L -70.35 25.35
Q -72.9 25.7 -72.45 21.25
L -71.25 9.05
Q -70.85 5.75 -70.3 5.45 -69.95 5.05 -69.15 5.05 -68.6 5.2 -60.1 5.05
L -34.15 4.95
Q -32.75 6.85 -32.9 10.8 -33 12.15 -32.75 14
L -32.75 14.65
Q -32.75 19.6 -32.1 22.95 -31 26.8 -30.7 27.45
L -27.5 35.7
Q -27 36.45 -26.85 37.95 -26.65 39.45 -25.8 40.95 -25.2 42.75 -24.7 43.05
L -22.25 47.55
Q -21.75 48.05 -21.6 49.35
L -20.85 51 -19.15 53.2
Q -17.2 55.3 -14.55 58.4 -11.35 58.65 -8.6 58.05 -6.2 57.2 -5.15 56.35
L -4.1 55.65 0.3 53.55
Q 3.4 51.95 7.8 50.05 10.1 49.05 12.7 47.7 14.9 46.55 15.05 46.3
L 16.55 45.15
Q 16.75 45.1 16.85 45.05 17.65 44.75 18.35 44.1 19.25 43.8 19.75 43.3 20.3 42.75 20.8 42.45
L 31.6 36.35
Q 34.8 34.45 36.85 32.55
L 37.9 31.85
Q 38.95 31.35 39.85 30.4 41.15 29.2 39.85 28.85 36.5 26.7 33.55 27.9 30.45 29.15 27.45 29.3 23.9 29.7 22.5 30.05
L 18.65 31.1
Q 17.85 31.35 16.85 31.5 15.65 31.7 14.1 31.85
L 6.05 33.6
Q 4.6 34.05 4.15 33.7 3.6 33.4 3.6 32.95 1.6 30.05 0 26.95
L -1.05 25.1 -1.65 24.35
Q -2.2 23.8 -2.45 23.25
L -3.55 21.4
Q -5.65 17.85 -6.65 13.3
L -8.25 6.65 -8.6 5.8
Q -7.45 4.35 -3.75 4.55 2.85 4.95 15.15 4.95 16 4.95 16.85 4.95 25.85 4.9 30.75 4.55
L 33.35 4.55
Q 34.3 5.55 34.6 8 34.8 10.45 35.1 11.1 35.35 11.55 35.7 13.3 35.8 15.2 36.2 16.1
L 36.85 18.5 38.45 22.05
Q 39.05 23.45 40.05 24.85 41 26 41.75 27.45
L 43.5 31.15 48.4 37.75
Q 50.05 40.1 53.85 45.15 56.55 48.7 57.9 50.05
L 63.8 56.7
Q 64.85 58.35 67.15 59.8 70.15 62.25 72.75 65.1
L 73.6 65.8 76.05 67.45
Q 77.95 68.5 84.3 69.95 84.3 69.35 84 68.85 83.3 68.25 83.25 67.9
L 75 54.75
Q 74.45 53.55 73.6 52.45
L 72.2 49.6
Q 71.8 49 71.8 48.75
L 71.35 47.95 70.65 46.3
Q 70.25 45.2 69.75 44.35
L 69.25 42.95
Q 68.65 41 67.65 39.35 66.8 38.35 66.45 37.1 66.2 36.15 65.5 34.95 65.15 34.05 64.35 32
L 60.65 22.8
Q 59.95 21.45 58.75 18.75 57.9 17.1 57.4 15.1
L 56.65 12.65
Q 56.3 11.65 54.7 5.05
L 100 4.95 100 4.15 99.15 -4.55
Q 98.65 -6.3 98.65 -7.4
L 94.9 -33.7
Q 94.35 -37.25 93.9 -41.25
L 91.8 -58.75
M 2.8 -50.95
Q 4.35 -50.25 6.05 -49.9 7.95 -49.6 9.25 -48.95 10.35 -48.25 11.65 -47.95
L 14.1 -46.9
Q 15.05 -46.35 16.85 -46.1 17.25 -46.05 17.6 -46.05 17.3 -45.75 16.85 -45.5 15.35 -44.65 12.7 -44.75 0.5 -45.25 -5.5 -45.25 -7.05 -39.9 -10.05 -31.8
L -11.45 -26.9
Q -12.05 -24.45 -12.3 -21.35 -12.45 -17.75 -8.6 -18.6 1.55 -19.1 4.35 -19.4
L -8.6 -12.25
Q -11.2 -10.7 -11.55 -8.5 -12 -6.85 -11.8 -4.6 -11.7 -2.95 -11.05 -2.45 -11.55 0.9 -11.05 2.5
L -12.1 2.5
Q -24.4 2.5 -31 2.15 -31.4 2.15 -31.75 1.65
L -31.75 0.85
Q -30.25 -0.85 -30.7 -4.9
L -30.7 -5.65
Q -30.3 -12.25 -28.9 -17.15
L -28.9 -18.15
Q -26.8 -29.25 -22.25 -36.4 -19.7 -40.9 -15.95 -45.95 -12.65 -50.45 -9.65 -55.15 -5.4 -53.55 -2.8 -52.95 0.25 -52.05 2.8 -50.95
M 33 -26.25
L 35.8 -40.25
Q 36.8 -45.8 38.95 -50.15 42.3 -50.4 44.55 -48.95 48.2 -46.65 52.95 -45.25 57.7 -43.55 60.65 -41.65 62.85 -40.1 66.25 -38.1 75.1 -32.9 81.85 -28.7 75 -28.7 70.3 -29.35
L 61.2 -30.75
Q 56.55 -31.45 52.95 -32.9 51.55 -31.8 51.2 -29.95 51.15 -28.35 50.85 -27.15 50.5 -26.25 50.5 -25.5 50.35 -22.25 49.8 -19.55 49.25 -14.4 50.2 -11.3
L 51.05 -9.2
Q 51.3 -8.25 52.95 -8.15
L 55.4 -8.15
Q 61.2 -8.15 66.95 -7.8
L 67.3 -7.8 63.8 -6.6 57.9 -3.55 56.3 -3.15
Q 53.25 -2.7 53.65 1.7 54.1 3.1 52.25 3 41.25 2.5 38.25 2.5 31.95 3.95 31.95 1.1
L 31.95 -10.9
Q 31.95 -12.85 32.35 -15.15
L 32.5 -20.05
Q 32.5 -21.15 33 -26.25
M -85.6 -5.8
Q -82.5 -15.05 -81.55 -27.1 -81.5 -30.35 -80.4 -33.7 -79.15 -38.1 -78.45 -44.4 -78.25 -46.15 -78 -47.7 -77.55 -50.25 -73.7 -49.5 -72.9 -49.35 -72 -49.35 -68.15 -49.95 -66.7 -48.25 -66.2 -47.55 -66.7 -47 -67.6 -44.75 -67.4 -41.15 -67.35 -38.05 -67.8 -35.35 -69.05 -23.25 -69.55 -12.3
L -70.9 -0.75 -70.9 0
Q -70.5 3.3 -73.7 3 -79.1 2.6 -84.35 3.05 -87.05 3.25 -87 0.85 -85.45 -0.85 -85.6 -4.9
L -85.6 -5.8 Z"/>
</g>
</defs>

<g transform="matrix( 1, 0, 0, 1, 0,0) ">
<use xlink:href="#Layer0_0_FILL"/>
</g>

<g transform="matrix( 1, 0, 0, 1, 100,108.55) ">
<g transform="matrix( 1, 0, 0, 1, 0,0) ">
<use xlink:href="#Symbol_1_0_Layer0_0_FILL"/>
</g>
</g>
</svg>
