
<svg xmlns="http://www.w3.org/2000/svg" version="1.1" xmlns:xlink="http://www.w3.org/1999/xlink" preserveAspectRatio="none" x="0px" y="0px" width="500px" height="500px" viewBox="0 0 500 500">
<defs>
<g id="Layer0_0_FILL">
<path fill="#000000" fill-opacity="0.996078431372549" stroke="none" d="
M 474.7 66.7
Q 467.35 52.15 457.95 39.45 424.25 -5.75 351.4 0.85 339.85 1.9 332.05 5.25 280.2 27.35 249.05 71.15 232.65 45.05 208.75 26.4 188 10.25 158.55 3.95 114 -5.65 81.2 11.2 32.55 36.2 16.5 94.45 13.2 106.2 10.05 116.8 10.05 134.55 11.5 152.2 16.7 216.45 41.35 261.65 67.9 310.3 101.4 351.75 134.75 393.05 171.4 431.1 208.05 469.05 251.55 500 263.7 489.85 275.95 479.7 316.75 446.1 353.15 407.8 389.5 369.45 420.5 325.4 451.3 281.55 472.6 228.1 473.45 225.95 474.45 223.95 492.85 186.5 489.45 127.05 487.5 92.1 474.7 66.7 Z"/>
</g>
</defs>

<g transform="matrix( 1, 0, 0, 1, 0,0) ">
<use xlink:href="#Layer0_0_FILL"/>
</g>
</svg>
