
<svg xmlns="http://www.w3.org/2000/svg" version="1.1" xmlns:xlink="http://www.w3.org/1999/xlink" preserveAspectRatio="none" x="0px" y="0px" width="500px" height="500px" viewBox="0 0 500 500">
<defs>
<g id="Layer0_0_FILL">
<path fill="#1D1D1B" stroke="none" d="
M 334.7 83.7
Q 329.35 78.3 324.45 72.45 323.45 72.45 322.95 71.95 319.55 68.5 316.6 64.6 315.65 64.6 315.15 64.1 309.75 58.75 304.85 52.85 303.9 52.85 303.4 52.35 299.95 48.95 297.05 45 296.05 45 295.55 44.55 290.2 39.15 285.3 33.25 284.3 33.25 283.8 32.8 280.4 29.35 277.45 25.45 276.45 25.45 276.1 24.95 264.05 11.45 250.05 0 241.25 7.8 232.9 16.15 204.05 45 175.15 73.9 146.3 102.8 117.4 131.65 88.55 160.55 59.65 189.4 31.66328125 217.43515625 3.15 245
L 100 245
Q 100 245.75 100 246.55 100 250.45 100 254.4 100 255.35 100 256.35 100 270.05 100 283.75 100 284.75 100 285.7 100 289.6 100 293.55 100 294.5 100 295.5 100 309.2 100 322.9 100 323.9 100 324.85 100 328.8 100 332.7 100 333.7 100 334.65 100 348.35 100 362.05 100 363.05 100 364.05 100 367.95 100 371.85 100 372.85 100 373.8 100 387.5 100 401.25 100 402.2 100 403.2 100 407.1 100 411 100 412 100 412.95 100 423 100 433
L 100.5 433
Q 100.5 436.425 100.5 439.85 100.5 440.85 100.5 441.8 100.5 455.5 100.5 469.25 100.5 470.2 100.5 471.2 100.5 475.1 100.5 479 100.5 480 100.5 480.95 100.5 491 100.5 501
L 400.55 501
Q 400.55 500.8 400.55 500.55 400.55 496.65 400.55 492.7 400.55 491.75 400.55 490.75 400.55 477.05 400.55 463.35 400.55 462.35 400.55 461.4 400.55 457.5 400.55 453.55 400.55 452.6 400.55 451.6 400.55 437.9 400.55 424.2 400.55 423.2 400.55 422.25 400.55 418.3 400.55 414.4 400.55 413.4 400.55 412.45 400.55 398.75 400.55 385.05 400.55 384.05 400.55 383.1 400.55 379.15 400.55 375.25 400.55 374.25 400.55 373.3 400.55 359.6 400.55 345.9 400.55 344.9 400.55 343.9 400.55 340 400.55 336.1 400.55 335.1 400.55 334.15 400.55 323.55 400.55 313
L 400.05 313
Q 400.05 310.1115234375 400.05 307.25 400.05 306.25 400.05 305.3 400.05 291.6 400.05 277.9 400.05 276.9 400.05 275.9 400.05 272 400.05 268.1 400.05 267.1 400.05 266.15 400.05 255.55 400.05 245
L 495.4 245
Q 493.7439453125 243.2029296875 492.8 240.8 491.8 240.8 491.35 240.3 485.95 234.95 481.05 229.05 480.05 229.05 479.6 228.6 476.15 225.15 473.2 221.25 472.25 221.25 471.75 220.75 466.35 215.35 461.45 209.5 460.5 209.5 460 209 456.6 205.55 453.65 201.65 452.65 201.65 452.15 201.15 446.8 195.8 441.9 189.9 440.9 189.9 440.45 189.4 437 186 434.05 182.1 433.1 182.1 432.6 181.6 427.2 176.2 422.3 170.35 421.35 170.35 420.85 169.85 417.45 166.4 414.5 162.5 413.5 162.5 413 162 407.65 156.6 402.75 150.75 401.75 150.75 401.3 150.25 397.85 146.85 394.9 142.9 393.95 142.9 393.45 142.45 388.05 137.05 383.15 131.15 382.2 131.15 381.7 130.7 378.25 127.25 375.35 123.35 374.35 123.35 373.85 122.85 368.5 117.45 363.6 111.6 362.6 111.6 362.1 111.1 358.7 107.65 355.75 103.75 354.8 103.75 354.3 103.25 348.9 97.9 344 92 343.05 92 342.55 91.5 339.1 88.1 336.2 84.2 335.2 84.2 334.7 83.7 Z"/>
</g>
</defs>

<g transform="matrix( 1, 0, 0, 1, 0,0) ">
<use xlink:href="#Layer0_0_FILL"/>
</g>
</svg>
