
<svg xmlns="http://www.w3.org/2000/svg" version="1.1" xmlns:xlink="http://www.w3.org/1999/xlink" preserveAspectRatio="none" x="0px" y="0px" width="500px" height="500px" viewBox="0 0 500 500">
<defs>
<g id="Layer0_0_FILL">
<path fill="#000000" stroke="none" d="
M 324.8 120.6
Q 324.3 120.6 324.15 120.4 322.05 116.95 319.9 113.7 319.4 113.7 319.2 113.5 317.9 111.75 316.95 109.8 316.45 109.8 316.25 109.55 313.5 105.9 311.05 101.95 310.55 101.95 310.5 101.8 310.1 100.85 309.7 100 309 98.85 308.1 98.05
L 308.05 98.05
Q 307.6 98.05 307.5 97.85 305.15 94.1 303.2 90.2 302.7 90.2 302.4 89.95 301.3 89.15 301.25 87.25 300.75 87.25 300.55 87 297.8 83.35 295.35 79.4 294.9 79.4 294.8 79.2 293.9 77.45 293.4 75.5 292.9 75.5 292.7 75.25 289.75 71.3 287.55 66.65 287.05 66.65 287 66.5 286.1 64.15 284.6 62.75 284.6 62.25 284.35 62 281.2 58.75 279.7 53.9 279.2 53.9 279.15 53.75 278.65 52 277.7 51 277.7 50.5 277.5 50.25 274.35 47 272.8 42.15 272.35 42.15 272.3 42 271.8 40.25 270.85 39.2 270.85 38.7 270.85 38.25 270.35 38.25 270.2 38 267.6 34.05 265.95 29.4 265.45 29.4 265 29.4 265 28.9 264.75 28.6 264.05 27.4 264 25.5 263.5 25.5 263.4 25.3 261.05 21.1 259.1 16.65 258.6 16.65 258.5 16.45 257.6 14.7 257.15 12.75 256.65 12.75 256.6 12.6 254 6.1 251.25 0 250.75 0 250.55 0.25 248.3 2.95 246.35 5.9 246.35 6.35 246.25 6.8 245.05 11.45 242.45 14.7 242.45 15.2 242.25 15.6 234.75 31.05 225.75 45.1 225.75 45.6 225.55 46 222.3 52.9 217.9 58.8 216.45 62.75 214.45 66 203.95 82.8 192.05 98.05 191.25 99 190.45 100 190.45 100.5 190.45 101 190.45 101.45 190.2 101.75 188.5 103.9 186.55 105.9 186.55 106.35 186.55 106.85 186.05 106.85 185.9 107.1 179.2 117.65 170.85 126.45 159.25 142.8 145.6 157.05 143.65 159.05 141.75 161.15 127.9 176.15 113.45 190.65 98.95 205.05 84.15 219.1 83.6 219.6 83.05 220.1 68.2 234.1 51.25 246.1 51.25 246.55 51.1 246.6 48.75 247.5 47.35 249 47.35 249.5 47.35 250 47.35 250.5 47.35 251 50.25 252.95 52.95 255.2 53.2 255.4 53.2 255.9 53.7 255.9 54.2 255.9 55.65 256.85 56.9 258.1 57.15 258.35 57.15 258.8 61.1 260.25 63.35 263.5 63.5 263.7 64 263.7 65.45 264.7 66.7 265.95 66.95 266.15 66.95 266.65 71.35 269.1 74.55 272.75 74.8 273.05 74.8 273.55 77.3 273.95 78.45 275.65 78.7 276 78.7 276.45 81.7 279.35 85.3 281.7 85.55 281.85 85.55 282.35 87.05 283.35 88.25 284.55 88.5 284.8 88.5 285.3 91.5 288.2 95.1 290.55 95.35 290.7 95.35 291.15 97.35 292.65 99.05 294.35 99.3 294.6 99.3 295.1 102.25 297.55 104.95 300.25 105.15 300.5 105.15 301 106.65 301.95 107.85 303.2 108.1 303.45 108.1 303.9 112.05 307.35 115.7 311.05 115.95 311.25 115.95 311.75 116.95 312.25 117.65 313 117.9 313.25 117.9 313.7 121.35 316.65 124.55 319.85 124.8 320.1 124.8 320.6 126.75 322.05 128.45 323.75 128.7 324 128.7 324.5 132.2 326.9 134.4 330.55 134.6 330.9 134.6 331.35 136.05 332.35 137.3 333.6 137.55 333.8 137.55 334.3 141.5 337.2 144.15 341.3 144.4 341.65 144.4 342.15 145.85 343.15 147.1 344.35 147.35 344.6 147.35 345.1 150.25 348.05 152.95 351.15 153.2 351.45 153.2 351.95 154.7 352.95 155.9 354.15 156.15 354.4 156.15 354.9 159 358.45 161.8 361.95 162.05 362.25 162.05 362.75 163.5 363.7 164.75 364.95 165 365.2 165 365.7 167.9 369.1 170.6 372.75 170.85 373.05 170.85 373.55 172.55 373.8 172.75 375.5 172.8 376 172.8 376.45 176.95 379.7 179.5 384.4 179.7 384.8 179.7 385.3 181.15 386.25 182.4 387.5 182.6 387.75 182.6 388.25 184.7 391.55 187.3 394.35 187.55 394.6 187.55 395.1 188.7 396.85 190.2 398.3 190.45 398.55 190.45 399 193.05 402.3 195.15 406 195.35 406.35 195.35 406.85 197.15 408.05 198.1 409.9 198.3 410.3 198.3 410.8 201.6 414.35 204 418.7 204.2 419.1 204.2 419.6 205.85 419.9 206.1 421.55 206.15 422.05 206.15 422.55 208.85 425.75 210.85 429.5 211.05 429.9 211.05 430.4 212.8 431.55 213.8 433.45 214 433.8 214 434.3 216.7 438 218.7 442.25 218.9 442.65 218.9 443.15 220.65 444.3 221.65 446.15 221.85 446.55 221.85 447.05 224.1 450.2 225.6 453.95 225.75 454.4 225.75 454.9 227.55 456.1 228.5 457.95 228.7 458.35 228.7 458.8 231 463.4 233.4 467.75 233.6 468.15 233.6 468.65 234.6 469.6 235.3 470.75 235.55 471.1 235.55 471.55 237.1 475.45 239.25 478.6 239.5 478.9 239.5 479.4 240.4 481.85 242.2 483.6 242.45 483.8 242.45 484.3 245.55 492.95 250.6 499.75 250.75 500 251.25 500 251.25 499.5 251.25 499 251.25 498.55 251.25 498.05 254.55 493.95 256.6 488.4 256.65 488.25 257.15 488.25 257.15 487.75 257.15 487.25 257.15 486.25 257.15 485.3 260.8 482.1 262.5 476.6 262.55 476.45 263 476.45 263 476 263 475.5 263 475 263 474.5 270.95 459.9 279.5 445.95 279.7 445.6 279.7 445.1 279.7 444.6 279.7 444.1 284.9 438.05 288.9 430.6 289 430.4 289.5 430.4 289.5 429.9 289.5 429.4 289.5 428.9 289.5 428.45 301.75 411.75 313.65 394.55 317.6 388.9 321.85 383.35 321.85 382.85 321.85 382.35 332 370.45 341.75 358.1 341.95 357.85 342.45 357.85 342.45 357.35 342.45 356.85 355.85 341.35 370 326.55 384.1 311.75 398.9 297.7 413.75 283.6 428.85 269.8 430.9 267.9 433.6 266.65 433.6 266.15 433.6 265.7 443.85 258.3 452.7 249.5
L 452.45 248.9
Q 452.25 248.55 452.25 248.05 451.75 248.05 451.4 247.8 448.3 245.6 445.35 243.15 444.9 243.15 444.65 242.9 443.4 241.65 442.45 240.2 441.95 240.2 441.6 239.95 437.7 237.55 434.6 234.3 434.1 234.3 433.85 234.05 432.6 232.85 431.65 231.35 431.15 231.35 430.8 231.15 427.15 228.55 423.8 225.5 423.3 225.5 423.05 225.25 421.35 223.55 419.9 221.55 419.4 221.55 419.05 221.3 415.65 218.9 413 215.7 412.55 215.7 412.3 215.45 411.05 214.2 410.1 212.75 409.6 212.75 409.3 212.5 406.15 209.8 403.2 206.85 402.7 206.85 402.5 206.6 400.75 204.9 399.3 202.95 398.8 202.95 398.55 202.7 395.85 200 393.4 197.05 392.9 197.05 392.65 196.8 391.45 195.6 390.45 194.1 390 194.1 389.75 193.85 386.05 190.2 382.6 186.25 382.15 186.25 381.9 186.05 381.15 185.3 380.65 184.3 380.15 184.3 379.95 184.05 376.75 180.9 373.8 177.45 373.3 177.45 373.05 177.2 371.35 175.5 369.9 173.55 369.4 173.55 369.2 173.3 366.6 169.95 364 166.65 363.5 166.65 363.25 166.4 362.05 165.2 361.05 163.7 360.55 163.7 360.3 163.5 357.5 160.45 355.15 156.85 354.7 156.85 354.45 156.6 352.7 154.9 351.25 152.95 350.75 152.95 350.6 152.75 348.4 148.9 345.35 146.1 344.9 146.1 344.85 145.95 343.95 143.6 342.45 142.15 341.95 142.15 341.75 141.9 339.15 138.6 336.55 135.3 336.05 135.3 336 135.15 335.1 132.8 333.6 131.35 333.1 131.35 332.85 131.15 329.8 127.85 327.7 123.55 327.25 123.55 327 123.3 325.75 122.05 324.8 120.6 Z"/>
</g>
</defs>

<g transform="matrix( 1, 0, 0, 1, 0,0) ">
<use xlink:href="#Layer0_0_FILL"/>
</g>
</svg>
