
<svg xmlns="http://www.w3.org/2000/svg" version="1.1" xmlns:xlink="http://www.w3.org/1999/xlink" preserveAspectRatio="none" x="0px" y="0px" width="400px" height="400px" viewBox="0 0 400 400">
<defs>
<g id="Layer0_0_FILL">
<path fill="#000000" stroke="none" d="
M 349.6 4.95
Q 349.6 1.45 349 0.8 348.5 0.4 348.05 0.4 330.7 0 313.25 0 286.95 0 260.6 0 234.3 0 207.95 0 181.65 0 155.3 0 129 0 102.65 0 76.35 0 50 0 50 0.4 50 0.8 50 20.65 50 40.5 50.45 40.5 50.85 40.5 63.4 40.5 75.9 40.5 75.9 51.65 75.85 62.85 75.75 87.35 81.4 106.65 84.25 116.25 88.6 124.4 97.3 140.95 111.2 152.6 118.2 158.45 125.35 164.3 139.35 175.65 152.6 187.75 153.1 188.15 153.65 188.45 162.2 192.9 162.45 205.1 161.55 206.35 161 207.7 160.65 208.4 160.2 208.9 150.7 219.4 139.65 228.7 125.95 240.35 112.05 251.9 98.15 263.4 89.3 279.55 80.4 295.7 78.15 317.65 76.15 337.3 76.75 358.95 76.35 358.95 75.9 358.95 62.95 358.95 50 358.95 50 359.35 50 359.8 50 368.800390625 50 377.8 50 382.7251953125 50 387.65 50 388.325 50 389 50 389.1 50 389.2 50 389.6412109375 50 390.05
L 50 390.25
Q 50 393.2 50 396.15
L 50 396.35
Q 50 397.947265625 50 399.5 50 399.6001953125 50 399.7
L 50 399.9
Q 50 400 50 400.1
L 332.3 400.1
Q 334.35 400.15 336.45 400.2 338.85 400.25 341.05 400.1
L 348.95 400.1
Q 348.95 400.00078125 348.95 399.9 348.9544921875 399.7017578125 348.95 399.5
L 348.95 399.4
Q 348.9775390625 399.140625 349 398.85
L 349 390.05 348.95 390.05
Q 348.936328125 389.7779296875 348.9 389.5 348.9361328125 389.3529296875 348.95 389.2
L 348.9 389.2
Q 348.9248046875 389.1005859375 348.9 389 348.9064453125 388.336328125 348.9 387.65 348.9474609375 386.9314453125 349 386.2
L 349 358.95
Q 348.5 358.95 348.05 358.95 335.6 358.95 323.1 358.95 323.1 350.25 323.3 341.6 324 316.3 318.2 297.6 312.15 278.5 300.35 265 288.6 251.55 274.45 240.35 260.25 229.05 247.25 216.7 246.8 216.25 246.25 216 237.8 211.35 237.4 199.3 240.35 192.9 245.5 188.7 259.6 177.3 272.85 165.2 276.25 162.1 279.9 159.35 294.25 148.15 304.9 133.5 315.4 118.95 320 98.5 321.1 93.65 321.6 88.45 323.65 65.4 323.1 40.5 323.5 40.5 324 40.5 336.45 40.5 349 40.5 349.65 23.15 349.6 4.95 Z"/>
</g>
</defs>

<g transform="matrix( 1, 0, 0, 1, 0,0) ">
<use xlink:href="#Layer0_0_FILL"/>
</g>
</svg>
