
<svg xmlns="http://www.w3.org/2000/svg" version="1.1" xmlns:xlink="http://www.w3.org/1999/xlink" preserveAspectRatio="none" x="0px" y="0px" width="500px" height="500px" viewBox="0 0 500 500">
<defs>
<g id="Layer0_0_FILL">
<path fill="#000000" stroke="none" d="
M 417.2 387.3
Q 432.05 353.6 431.9 306.95 431.75 260.75 415.65 230.7 383.05 169.95 325.25 135.8 281.55 110.1 265.75 56.55 259.8 37 268.25 16.45 272.95 5.05 269.5 0 225.8 26.8 195.6 66.75 155.5 119.35 159.55 216.1 159.9 225.5 162.4 234.15 168.35 254.65 163 272.5 140.95 252.3 132 219.25 128.55 206.75 128.25 194.2 127.8 173.05 122.3 159.75 89.1 193.9 76.55 247.75 73.45 261.2 69.05 272.5 62.8 368 98.8 420.8 136.55 475.9 209.7 495.95 211.55 496.4 213.3 496.75 281.55 507.55 329 482.35 389.45 450.4 417.2 387.3 Z"/>
</g>
</defs>

<g transform="matrix( 1, 0, 0, 1, 0,0) ">
<use xlink:href="#Layer0_0_FILL"/>
</g>
</svg>
