
<svg xmlns="http://www.w3.org/2000/svg" version="1.1" xmlns:xlink="http://www.w3.org/1999/xlink" preserveAspectRatio="none" x="0px" y="0px" width="200px" height="200px" viewBox="0 0 200 200">
<defs>
<g id="Layer0_0_FILL">
<path fill="#006400" stroke="none" d="
M 178.05 60.4
L 178.05 59.15
Q 178.45 41.8 171.75 31.4
L 130.1 31.4
Q 130.1 30.9 129.85 30.1 127.9 23.65 125 17.5 124.35 17.5 124.15 17.15 119.75 12.85 113.7 9.95
L 106.15 9.95
Q 101.7 9.95 97.4 10.8 90.6 12.35 85.9 11.25 84.4 14.05 81.4 15.95 75.4 19.7 74.55 28.8 72.1 32.75 64.45 31.4 49.1 28.55 34.15 31.4 33.55 31.4 33.25 31.75
L 26.55 40.15 26.5 41.45
Q 25.05 65.1 36.7 75.5 37.3 75.5 37.85 75.8 42.55 77.95 49.3 80.5
L 50.6 80.5
Q 58.4 80.35 60.65 74.2 64.35 72.25 70.8 72.65 75.7 73.1 77.05 76.8
L 78.4 79.2
Q 79 79.9 78.9 80.5 78.75 84.7 80.95 84.85 94.1 86.45 107.35 86.2 109.35 86.2 112.35 86.45 122.5 87.55 125 81.8 125 81.2 125.2 80.6 128.95 68.85 142.7 72.95 142.7 74.25 143.3 75.05 143.9 75.85 144.5 77.15 146.3 80.8 151.4 79.8 170.4 76.2 178.05 60.4
M 89.95 28.3
Q 89.7 28.2 89.7 27.5 99.8 21.05 111.25 26.1 111.7 26.35 112.35 26.35 115.2 30.95 111.15 31.3
L 109.9 31.4
Q 97.8 32.05 89.95 28.3
M 164.2 88.1
L 164.2 87.5
Q 154.35 88.55 146.5 91.9 146.5 92.7 146.25 93.05 143.4 100.3 132.55 99.45 129.8 98.45 128.05 96.35 127.55 95.7 127.25 95.05 125.85 92.95 122.5 93.15 101.15 94.85 78.3 94.45 77.75 94.45 77.45 94.75 73.2 100.75 61.9 99.45 59.8 96.55 58.95 94.1 57.55 90.6 53.35 89.6 47.45 88.2 40.45 86.85 39.9 87.55 39.9 88.1 39.2 105.75 39.9 123.5 40.2 130.5 38 134.85
L 38 133.55
Q 37.3 111.45 32.9 93.15 23.55 92.05 19.7 96.5 15.75 100.9 12.6 105.7
L 12.6 115.8
Q 12.6 121.25 13.55 127.05 15.1 135.2 15.2 143.6 20.7 159.05 31 169.45 49.4 188.4 85.9 189.7 125.75 191.2 151.65 182.95 180.05 174 187.6 144.8 188.25 142.1 188.25 141.05 189.35 122.35 189.35 102 188.8 102 188.8 101.85 187.25 93.95 179.3 93.15 172.55 92.75 172.55 99.45 172.55 104.5 171.35 108.2 168.35 117.45 167.95 128.55 167.55 135.25 165.4 138.65 165.4 119.05 166.1 99.45 166.4 92.45 164.2 88.1 Z"/>
</g>
</defs>

<g transform="matrix( 1, 0, 0, 1, 0,0) ">
<use xlink:href="#Layer0_0_FILL"/>
</g>
</svg>
