
<svg xmlns="http://www.w3.org/2000/svg" version="1.1" xmlns:xlink="http://www.w3.org/1999/xlink" preserveAspectRatio="none" x="0px" y="0px" width="200px" height="200px" viewBox="0 0 200 200">
<defs>
<g id="Layer0_0_FILL">
<path fill="#006400" stroke="none" d="
M 164.55 72.35
L 164.6 72.6
Q 164.95 72.95 165.2 72.75 165.5 72.75 165.85 72.4 166.05 71.75 166.05 71.3 165.75 68.3 167.75 68.3 173.9 68.3 172.25 65.6
L 170.9 64.85
Q 169.75 63.85 169.35 63.15 166.45 58.8 162.4 53.3 161.55 52.35 160.8 52.1 158.9 51.35 156.85 50.75 151 48.7 148.55 43.55 148.05 42.95 147.75 42.95 142.5 42.35 145.55 44.55 145.35 49.35 146.35 52.5 146.6 53.65 146.05 54 145.5 54.6 145.05 54 143.9 52.75 141.05 52.75 138.75 52.95 139.05 54.55 139.55 57.75 137.75 58.25 137.35 58.55 136.85 59.05 135.05 65.85 127.7 66.7 125.7 66.65 125.7 64.55 125.55 62.6 124.75 60.4 123.55 57.1 124.8 51.35 125.05 50.75 125.55 50.75 128.5 51.25 127.15 48.25 124.7 43.3 127.7 41.35 128.2 41.35 128.75 41.05 129.15 41.05 129.4 40.75 126 36.9 130 35.75 135.75 33.85 131.05 29
L 130.6 28.5
Q 132.75 25.85 134.4 30.15 134.75 31.3 135.8 31.85 137.75 33.45 137.75 31.35 137.75 26.45 135.6 22.55 131.85 17.05 129.1 10.15 127.3 5.75 123.2 3.5 118.65 4.1 117.95 8.1 117.15 13 115 16.25 109.8 25 107.7 29 104.55 32.4 100 34.55 97.65 36 95.85 38.25 90.95 45.05 85.95 49.55 77.85 56.9 68.2 65.1 59.05 72.85 42.25 72.85
L 41.2 72.85
Q 35.35 72.85 33.35 75.65 39 78.35 44.65 79.75
L 46.35 80.65
Q 52.3 83.85 62.15 83.4 68.2 83.05 66.65 84.5 61.1 86.55 53.4 85.3
L 52.15 84.95 40 84.5
Q 34.15 84.5 30.1 83.9 24.2 83.3 23.4 86.7 22.9 87.3 23 87.5 23.35 88.5 24.45 88.65 31.65 89 36.6 91.45 37.15 91.8 37.15 91.95 36.05 95 32.2 95.65 22.35 95.65 18 89.95 17.45 89.4 16.45 88.65 13.55 87 14.05 88.9 14.95 96.05 17.9 101.15 21.45 106.05 17.7 105.1 13.25 104.15 10.15 102.2 4.45 98.6 0.2 93.4
L 0.05 98.95
Q -0.35 108.45 1.5 114.45
L 1.95 115.8
Q 4.9 126.65 9.25 134.45
L 9.7 135.7
Q 11.4 142.85 15 147.5
L 18.5 152.75
Q 25.85 163.2 33.95 170.5
L 35.15 171.7
Q 51.05 186.5 77.2 191.7 78.6 191.95 80 192.2 79.9 191.95 79.8 191.7 77.3 186.15 75.05 180.2 72.95 175.3 71.85 167.75 70.55 157 72.25 148.9 74.25 152.35 73.95 158.9 73.45 164.5 75.05 169.1 78.45 178.2 84.2 183.55 87.55 186.95 89.4 191.7 89.75 192.5 90 193.3 91.15 196.55 95.6 196.55
L 97.7 196.5
Q 103 195.15 106.65 192.3 107 191.95 107.35 191.7 125.25 177.5 147.55 167.5 148.2 167.2 148.8 167.2 156.7 166.9 164.25 168.6 170.45 170 176.7 171.8 177.15 171.95 177.55 172.1 182.35 173.6 186.35 171.7 187.25 171.3 188.1 170.85 190.5 169.6 192.75 168.15 194.75 166.9 196.6 165.5 198.3 164.1 199.1 161.2 199.35 160.45 199.35 159.95 199.85 152.1 199.85 144.45 196.9 143.2 196.9 144.45 197.25 148.6 196.1 150.45
L 195 151.75 193.3 153.3
Q 190.65 155.8 188.1 158.95 187.25 159.95 186.4 161.05 185.95 161.8 185.45 161.8 180.95 162.65 177.55 162.05 175.8 161.75 174.35 161.05 171.95 159.9 172.55 159.35 173 158.85 176.6 158.85 177.15 158.85 177.55 158.85 179.3 158.75 180.15 158.35 185.6 156.45 188 151.3 188 151.2 188.1 151.15 188.65 150.05 189.3 149.05 191.55 145.1 195.45 142.2 198.85 139.7 199.85 134.45
L 200.05 126.7
Q 200.05 122.65 195.55 122.65 190.5 122.65 188.1 124.3 187.9 124.4 187.75 124.5 187.85 124.7 188.1 124.8 188.4 124.95 188.8 124.95 192.45 125.45 193.8 127.05 194.3 127.95 193.8 128.4 191.9 130.3 190 131.45 188.85 132 188.1 133 187.5 133.75 187.15 134.7
L 185.95 138.7
Q 184.45 144.1 180.6 147.3 179.15 148.4 177.55 149.15 176.55 149.6 175.55 149.95 175.05 150.45 174.25 150.75 168.45 152.05 171.6 149.65
L 172.3 148.95
Q 175.9 145.55 177.5 141 177.55 140.95 177.55 140.9 180.8 132.05 183.55 121.45
L 183.8 120.1
Q 182.95 114.15 179.9 110 178.55 109.75 177.55 109.75 174.7 109.75 174.85 112.2
L 174.9 114.5
Q 174.9 117.6 175.2 118.9 175.95 127.2 173.6 132.5 173.25 133.65 172.75 134.15 168.9 139.55 165.55 143.35 164.85 143.35 163.3 143.8
L 162 144.1
Q 160.85 144.45 159.85 144.45 157.5 144.45 157.25 142.2 157.15 140.85 156.85 138.8 155.7 136.35 155.35 134.05 154.05 132 153.3 131.15 152.1 130.15 151.35 128.9 149.65 126.55 151.05 121.15 152.1 120.05 152.55 118.8 153.35 116.85 154.6 116.45 159.65 115 162.3 116.45 163.3 116.8 163.3 116.7 164.05 110.65 157.75 110 151.65 109.4 147.55 110.8 146.1 111.65 146.05 111.8 145.5 112.5 145.05 113.3 141.75 120.05 139.75 125.5 139.25 126.35 139.5 126.45 140.45 128.45 139.35 130.3 136.65 135 136.65 142.2 136.65 143.45 137.2 144.15 139.45 147.85 137.75 151.05 137.15 151.05 136.75 151.45 129.05 156.55 118.85 158.9
L 115.55 158.9
Q 113.6 158.9 112.55 158.35 108.15 156.65 113.3 156.7 114.35 156.7 115 156.05 118.2 152.45 114.5 149.95 111.9 147.1 117.7 148 121.2 148.4 123.85 150.5
L 124.5 151.05
Q 124.8 142.5 118.85 138.9 116.65 136.65 119.8 135.2
L 121.1 134.95
Q 124 135.45 122.95 132.5 121 127.4 118.5 123 115.85 118.85 118.85 117.85 119.65 119.9 122.15 119.75 123.05 119.55 121.9 115.75 120.6 111.65 122.95 106 126.2 98.05 131.65 90.55 138.05 81.85 145.55 75.65 146.1 75.15 146.35 74.5 148.55 69.5 155.55 68.95 157.9 71.7 159.05 70.4 159.75 69.7 160.85 69.75 163.05 70.45 164.55 72.35
M 98.2 48.8
Q 97.7 48.4 97.7 45.75 101.6 42.55 106.75 40.55 109.55 39.6 108.95 42.4 107.75 47.4 101.1 47.4 100.6 47.4 100.05 47.95 98.75 49.35 98.2 48.8 Z"/>
</g>
</defs>

<g transform="matrix( 1, 0, 0, 1, 0,0) ">
<use xlink:href="#Layer0_0_FILL"/>
</g>
</svg>
