
<svg xmlns="http://www.w3.org/2000/svg" version="1.1" xmlns:xlink="http://www.w3.org/1999/xlink" preserveAspectRatio="none" x="0px" y="0px" width="400px" height="210px" viewBox="0 0 400 210">
<defs>
<g id="Layer0_0_FILL">
<path fill="#FFFFFF" stroke="none" d="
M 37.15 129.25
L 32.9 137.8 2.25 122.9 0 127.75 34.15 144.5 40.75 131 37.15 129.25
M 46 123.25
Q 47.9 119.7 47 117 46.55 114.3 42.7 111.65
L 41.75 111 38.95 115.65 41.2 117.15 42 118.25
Q 42.7 118.8 42.7 119.5 42.7 120.2 42 120.75 41.8 121.65 41.2 121.65
L 40 122 37.25 121.1 34.4 119.4 33.75 118.9 32.65 118.25 38.25 108.9 31.75 105.6
Q 30.7 105.15 28.95 104.75 27.65 104.75 26.25 105 25.15 105.25 24.1 106.25 22.85 107 22.1 108.4 21.1 110.2 20.85 111.65 20.65 113.45 21 114.5 21.3 115.6 22.35 117.1
L 24.75 119.4 34.4 125.4
Q 36 126.25 37.7 126.5 39 126.95 40.9 126.85 42.35 126.75 43.5 125.75 44.25 125.25 45.15 124.35 45.6 123.9 46 123.25
M 25.85 110.9
Q 26.15 110.25 27 109.85
L 28.35 109.85 30.1 110.4 33.2 112.25 30.2 116.75 27.35 114.9 26.25 113.6
Q 25.6 112.95 25.6 112.4 25.45 111.6 25.85 110.9
M 52.45 72.75
Q 51 72.75 49.95 73.4 48.6 73.95 47.5 75.15 46 77.1 45.5 78
L 45.25 80.9
Q 45.4 82.25 46.15 83.75 46.6 85.25 47.95 86.5
L 53 91.65
Q 54.35 92.9 56.25 94.25
L 59.15 96
Q 61.25 96.9 62.25 96.9 63.1 97.2 65.05 96.4 66.5 96.05 67.9 94.4 70.7 91.6 70.55 88.4 70.05 85.65 67 82.4
L 66.3 81.65 62.5 85.65 64.55 87.65 65.3 88.9 65.4 90.1 64.65 91.25
Q 64.35 91.9 63.65 91.9 63.05 92.2 62.5 91.9
L 61.25 91.5 55.75 86.75 63.25 78.85 62.75 78.5
Q 61.5 77.1 60 76
L 57.5 74.25
Q 56.85 73.8 54.95 72.9
L 52.45 72.75
M 52 77.65
L 53.45 77.85 54.95 78.75 57.5 81 53.95 85 51.5 82.5 50.5 81.15
Q 50 80.35 50 79.65 50.3 78.85 50.7 78.35 51.5 77.65 52 77.65
M 32 94.5
L 28.85 98.65 54.15 110.25 57.5 105.9 39.5 84.65 36.4 88.75 50.5 103.85 32 94.5
M 83.8 78.85
L 87.5 75.75 87.5 75.45 87.85 75.45 87.9 75.4 72.65 57.85
Q 71.7 56.55 69.8 56.15 68.1 55.75 66.9 57.1 65.7 58 65 59.35
L 64.05 61.6 63.65 64.1 61.75 61.85 57.65 65.4 75.55 86 79.65 82.4 65.4 66.15 65.75 64.9 67 62.65
Q 68.05 61.75 68.65 62.15 69.85 62.55 70.4 63.5
L 83.8 78.85
M 87.5 85.45
L 87.5 85.75 87.85 85.45 87.5 85.45
M 86.8 46.1
L 83.8 45.65 82.15 45.85 80.65 46.6
Q 79.35 47.35 78.9 48.1 78.25 49.1 78.25 49.85
L 77.9 51.65 78.3 53.65 80.25 57.85 84.4 64
Q 85.25 65.65 87.05 67.15
L 87.05 67.25
Q 88.75 69 90 69.5 90.95 70.5 93.15 70.65 95.1 70.65 96.4 69.75 97.4 69.1 98.4 67.5
L 99.3 64.15 100.65 66.25 105.15 63.15 83.65 31.85 79.25 34.85 86.8 46.1
M 87.05 48.25
Q 87.65 48.1 88.3 48.1
L 98 62.15
Q 96.5 64.25 95 65.25 94.4 65.7 93.55 65.6 93.2 65.6 92.05 64.75
L 89.05 61.35 83.8 53.6 83.3 51.9
Q 83.1 51.55 83.3 50.4
L 84.25 49.6
Q 85.2 48.75 87.05 48.25
M 98.8 37.65
Q 98.35 38.75 98.65 40.6 98.95 42.8 99.5 43.85
L 104.75 53.85 107.05 56.6
Q 108.45 58.1 109.55 58.35 110.8 58.9 112.4 58.9 113.9 58.9 115.9 57.85 119.15 55.95 120.05 53.1 120.8 50.25 119 46.15
L 118.5 45.35 113.55 47.85 114.9 50.15 115.15 51.65
Q 115.15 52.3 114.9 52.9
L 113.9 53.85
Q 113.05 54.25 112.55 54.15 111.85 54.15 111.55 53.85
L 110.4 52.85 109.55 51.6 106.9 46.85 116.5 41.85 116.3 41.1 114.5 38.1
Q 113.45 36.4 112.55 35.4 111.9 34.35 110.4 33.35 109.8 32.85 108.3 32.15 106.7 31.9 105.65 32.1 104.6 32.1 102.8 33.1 101.45 33.8 100.05 35.1 98.95 36.75 98.8 37.65
M 104.9 37.1
Q 105.65 36.65 106.25 36.85 106.6 36.85 107.55 37.4
L 108.55 38.65 110.3 41.85 105.65 44.4 104.15 41.35 103.65 39.6
Q 103.45 38.65 103.8 38.1 104.05 37.4 104.9 37.1
M 127.55 15.1
L 136.6 12 135.3 8.05 121.15 13.05 133.85 48.9 148 44.15 146.55 40.15 137.55 43.35 133.05 30.55 139.55 28.2 138.1 24.3 131.75 26.65 127.55 15.1
M 158.85 13.25
L 153.75 14.5 155.3 35.35 146.85 16.3 141.75 17.55 154.05 42.4 159.5 41.15 158.85 13.25
M 193 156
L 192.6 155.25
Q 193.6 154.05 196.85 154.05 198.15 154.2 204 154.5
L 213.1 154.5
Q 222.2 154.5 226.6 154.05
L 228.8 154.05
Q 229.55 154.95 229.85 157.05 230.1 159.45 230.35 159.8
L 230.8 161.75
Q 230.95 163.3 231.25 164.05
L 233.1 169.25
Q 233.7 170.65 234.55 171.55
L 236.05 173.8 237.55 177 246.35 189.05
Q 247.05 190.1 247.85 190.8 248.75 192.15 249.85 193.25
L 255 199
Q 255.75 200.3 257.85 201.75 260.7 204.1 262.75 206.25
L 265.5 208.25
Q 267.25 209.3 272.6 210.4 272.6 210 272.35 209.5 271.85 209 271.75 208.75
L 264.6 197.3
Q 264.25 196.55 263.45 195.3
L 260.1 188.5 259.7 187.25
Q 259.15 185.6 258.35 184.05 257.7 183.35 257.25 182.25
L 256.5 180.25
Q 256 179.3 255.5 177.75
L 250.6 166.3
Q 249.7 164.6 249.5 163.25
L 247.1 154.55 286.1 154.5 286.1 153.75 285.45 146.3
Q 285 145.35 285 143.8
L 279.1 99.6
Q 278.55 95.9 278.35 90
L 122.5 90
Q 121.6 93.9 121.3 99.25
L 120.05 108.15
Q 119.5 112 119.5 113.35
L 118 124
Q 117.8 124.2 117.8 124.75
L 114 154.5 120.9 154.8
Q 123.25 155.1 123.4 155
L 122.05 162.25
Q 121.65 167.2 121.15 171.55 120.9 173 120.9 175.25
L 119.5 185.75
Q 118.95 190.05 118.8 190.8
L 117.65 195.75
Q 121.85 197.45 127.5 197.25 135.2 196.95 143 197.3 144.4 197.6 145.6 197.3
L 164.85 197.5 166.8 186.3
Q 167.85 179.2 168.6 165.25 166.65 165.25 165.3 165.75 163.45 166.4 161.85 166.55
L 159.35 167.05
Q 158.75 167.35 156.25 167.8
L 147.8 170.05
Q 146.85 170.5 145 171
L 139.55 172
Q 137.25 172.25 137.75 168.5
L 138.75 158
Q 139 155.1 139.6 154.8 140 154.55 140.6 154.55 141.05 154.8 148.35 154.55
L 170.6 154.5
Q 171.9 156 171.8 159.5 171.7 160.05 171.85 162.25
L 171.85 162.8
Q 171.85 167.4 172.5 170 173.2 172.85 173.6 173.8
L 176.35 181
Q 176.85 181.85 177 182.8 177 184.15 177.85 185.5 178.35 186.9 178.85 187.25
L 180.85 191.05
Q 181.35 191.7 181.55 192.75
L 182.1 194.05 187.55 200.5
Q 190.35 200.75 192.6 200.25 194.7 199.5 195.6 198.75
L 196.6 198.05 200.35 196.3
Q 204.3 194.3 206.85 193.25 208.75 192.5 211.05 191.3
L 214.35 189.05
Q 215.05 188.8 215.85 188.25
L 217.1 187.5 218 186.75 227.3 181.5
Q 230.1 179.7 231.85 178.25
L 232.75 177.55
Q 233.55 177.25 234.35 176.5 235.4 175.4 234.35 175 231.45 173.15 229 174.25 226 175.3 223.6 175.5
L 219.5 176.05 216.1 177
Q 214.4 177.35 212.25 177.55
L 205.35 179.05
Q 204.25 179.35 204 179.3 203.65 179.3 203.6 179.25 203.1 178.9 203.1 178.5 201.5 176.15 200.1 173.5
L 199.1 171.8 198.6 171.25
Q 198.1 170.6 198 170.25
L 197.1 168.55
Q 195.15 165.5 194.35 161.75
L 193 156
M 233.6 107
Q 236.3 106.85 238.35 108 241.65 110.1 245.6 111.25 249.7 112.8 252.3 114.35 253.85 115.55 257.1 117.4
L 270.5 125.5
Q 264.2 125.5 260.6 124.9
L 252.8 123.65
Q 249 123.3 245.6 121.9 244.4 122.95 244.1 124.4 244.1 125.5 243.85 126.85 243.6 127.3 243.6 128.25 243.45 131.2 243 133.3 242.5 137.75 243.3 140.5
L 244.05 142.3
Q 244.2 143.2 245.6 143.25
L 247.8 143.25
Q 254.2 143.25 257.75 143.5
L 258 143.5 255 144.5 249.85 147.25 248.6 147.5
Q 245.95 147.8 246.3 151.75 246.6 152.9 245.1 152.75 237 152.3 233.05 152.3 227.6 153.55 227.6 151.05
L 227.6 140.8
Q 227.6 138.3 227.85 137.25
L 228.1 133
Q 228.1 130.75 228.5 127.55
L 230.85 115.6
Q 231.65 110.85 233.6 107
M 208.05 108
Q 209.2 108.85 210.1 108.9
L 212.25 109.85
Q 213.1 110.55 215.25 110.6 213.85 111.9 211.05 111.65
L 195.35 111.25
Q 194.75 113.65 191.5 122.75
L 190.25 127
Q 189.7 128.8 189.55 131.8 189.3 135 192.6 134.25
L 203.8 133.5 192.6 139.75
Q 190.4 140.85 190.1 142.8 189.7 144.35 189.85 146.25 190.05 147.8 190.55 148.05 190.1 151.1 190.55 152.3
L 189.6 152.3
Q 181.05 152.3 173.35 152 172.95 152 172.8 151.55
L 172.8 151
Q 174.05 149.35 173.6 146
L 173.6 145.3
Q 174 139.6 175.1 135.5
L 175.1 134.55
Q 177.05 125.25 180.85 118.9 183.3 114.7 186.35 110.65 189.4 106.4 191.8 102.75 195.05 104.05 197.6 104.6 199.95 105.3 202.5 106.35 203.2 106.85 204 106.9 204.2 107.1 205.35 107.25 206.95 107.55 208.05 108
M 142.6 109.75
Q 141.8 111.8 142.1 114.75 142.1 117.5 141.8 119.75 140.85 126.9 140.1 139.55
L 139.1 149.55 139.1 150.25
Q 139.4 153 136.6 152.75 132.45 152.5 127.5 152.8 125.15 152.95 125.15 151 126.55 149.35 126.4 146
L 126.4 145.25
Q 129.1 136.7 129.85 127 129.85 124.55 130.85 121.15 131.8 117.75 132.6 111.9 132.65 110.4 133 109.15 133.2 107 136.6 107.5 137.15 107.75 138.1 107.75 141.45 107.2 142.6 108.65 143.05 109.3 142.6 109.75
M 176.35 12.05
Q 175.15 11.1 173.85 11
L 170.8 11
Q 169.05 11.15 167.6 12.05 166.2 13.2 165.5 14 164.55 15.3 164.55 16.7 164.05 18.15 164.05 20.05
L 164.85 27.3
Q 165.35 30.1 165.8 31.3 166.1 32.8 166.85 34.6 167.8 36.35 168.75 37.15 169.5 38.05 171.3 38.6 172.8 39.1 174.8 38.65 178.7 38.15 180.35 35.65 182 32.9 181.55 28.8
L 181.5 27.9 176.05 28.55 176.35 29.55 176.25 32.65 175.5 33.9 174.1 34.4 173 34.15 172.1 33.6 170.85 30.7 170.1 25.2 180.85 23.65 179.35 16.45
Q 178.6 14.7 178.1 14
L 176.35 12.05
M 169.5 17.4
Q 169.75 16.4 170.1 16.05
L 171.5 15.35
Q 172 15.35 172.8 15.55
L 173.85 16.7 174.55 18.3 175.1 21.8 169.75 22.45 169.5 21.2 169.5 17.4
M 200.35 10.05
Q 199.15 9 197.35 9 195.45 9 194.5 9.5 193.1 10.2 192.5 10.75
L 190.5 12.5 190.35 9.5 185.05 9.75 185.85 36.9 191.35 36.85 190.6 15.25 191.6 14.3 192.6 13.8
Q 193.15 13.5 194.05 13.5 195.25 13.5 195.6 14.25 196.1 15.25 196.1 16.15
L 196.85 36.6 202.25 36.35 201.35 13.25
Q 201.35 11.2 200.35 10.05
M 218.8 10.05
L 214.6 9.75 215.25 0.3 209.8 0 209.25 9.5 206.55 9.3 206.35 13.3 209.05 13.55 208 30.55
Q 208 34 209.25 35.4 210.6 37.25 213.6 37.4
L 217.25 37.35 217.5 33.1 215.5 33.1
Q 214.25 33.1 213.85 32.15 213.35 31.3 213.35 29.7
L 214.55 13.8 218.5 14.25 218.8 10.05
M 239.85 12.8
L 234.5 12.05 228.35 30.3 227.85 11 222.35 10.25 224.85 36.9 224.25 38.65
Q 223.95 39.5 223.5 39.85 222.65 40.35 222 40.35
L 219.35 40.15 218.8 44.15 219.35 44.15
Q 223.35 44.9 225.5 43.85 227.85 43.25 229.05 40.15
L 239.85 12.8
M 248.8 18.7
L 249.6 15.1 244.35 13.8 238.05 40.4 243.35 41.85 247.6 23.65
Q 248.05 22.2 249.25 21.45 250.4 20.7 252.1 20.95 253.65 21.45 254.85 22.3
L 256.35 16.45 255.5 16.15
Q 253.65 15.7 251.85 16.45 250.3 17.2 248.8 18.7
M 315.35 35.65
L 323.45 40.85 325.6 37.35 312.95 29.2 292.5 61.35 297.1 64.4 306.6 49.35 312.35 53.1 314.6 49.6 308.75 46.1 315.35 35.65
M 286.75 26.65
Q 287.75 25.2 288.25 24.15 289.55 21.05 288.2 18.3 286.5 15.35 283.5 14.25 279.95 12.75 277.1 14.25 274.2 15.45 272.75 18.95 272.25 20.2 272 22.05 271.7 23.2 271.7 24.8
L 272.25 30.55
Q 265 33.2 263 38.6 261.5 42.2 262.6 45.1 263.75 48.1 267.25 49.6 269.95 50.75 272.1 50.4 273.8 50.4 276.2 49.35
L 276.6 50.1 276.85 50.9 278.1 53.1 280.25 55.1 281 55.35 283.45 50.1
Q 281.9 49.6 281 46.9 282.8 45.55 285.1 43.35 286.7 41.5 288.2 38.65
L 282.95 36.6 280.5 40.6
Q 279.65 42.05 279.25 42.35
L 277.25 32.65 282.2 30.3
Q 283.3 29.95 284.6 28.7
L 286.75 26.65
M 276.85 23.95
L 277.75 21.2
Q 278.3 19.4 279.5 18.7 280.4 18 281.85 18.3 283.15 19.05 283.45 19.8 283.7 21.1 283.25 21.9 282.35 24.05 280.35 26.3 278.1 28.4 276.5 29.45
L 276.85 23.95
M 272.6 35.1
Q 272.55 35.65 272.75 36.6
L 274.35 44.9
Q 271.1 46.45 269 45.6 267.65 45 267.5 43.6 267.25 42.75 268 40.6 268.9 38.5 270 37.4 270.95 36.35 272.6 35.1
M 395.2 131.3
L 400 129.05 397.7 124.15 392.75 126.4 395.2 131.3
M 391.35 133.05
L 389.1 128.25 364.35 139.5 366.7 144.55 391.35 133.05
M 370.25 115.65
L 369.7 117.5 368.6 126.1
Q 368.15 127.6 366.5 128.75 365.4 129.5 364.35 129.25 363.35 128.95 362.75 127.75 361.4 125.4 364.35 122.15
L 361.1 119.25
Q 358.75 121.6 357.95 124.25 357.25 127.15 358.85 130 360.65 133.2 363.5 134.3 365.95 135.35 369.2 133.5 370.2 133 371 132.25 372 130.95 372.25 130.3
L 373 128.55 374.35 119.6
Q 374.4 118.1 375.75 117.4 377 116.85 377.85 117 378.85 117.55 379.5 118.4 379.75 119.55 379.75 119.9 379.75 120.5 379.5 121.4
L 378.85 122.75 377.85 124 381 126.85
Q 382 126.2 382.95 124.6 383.75 123.45 384.25 122.15 384.5 120.8 384.35 119.25 384.15 117.8 383.35 116.15 381.15 112.8 378.85 111.9 376.05 111.05 373 112.5 371.9 113.4 371.35 114 370.65 114.7 370.25 115.65
M 371.7 97.65
Q 369 94.55 366.25 94.15 362.7 93.8 359.85 95.9
L 363.1 100.35 363.5 99.9
Q 365.55 99 366.25 99 367.45 99 368.2 100 368.9 101.5 368.5 102.4 367.9 103.7 366.1 104.75
L 364.6 105.9 361.25 103.75 358.5 102.4
Q 356.6 101.5 355.5 101.5 353.8 101.5 352.5 101.85 350.8 102.55 349.2 103.35 347.3 104.8 346.5 107.25 345.7 109.8 347.1 111.6
L 348.25 112.65 349.6 113.4 352.35 113.6 353.85 113.4 351 116.5 354 120.75
Q 355.7 118.85 359.35 116.25
L 369.35 109.25
Q 372.45 106.85 373.2 103.85 373.75 100.8 371.7 97.65
M 359 106.85
L 361.75 108 355.6 112.4 355.35 112.4 353.25 111.9
Q 352.6 111.55 352.35 111.15 350.5 109.05 353.6 107.15 353.75 106.8 354.95 106.5
L 356.25 106.25 359 106.85
M 341.25 93.6
Q 338.75 95.9 338.35 97.9 337.95 100.4 340.2 102.65 341.05 104 342.6 105
L 345.85 102.25 344.6 100.9
Q 343.7 100.05 344 99
L 345.5 97 357.6 86.75 360.25 89.9 363.5 87.4 360.75 84 368.1 77.9 364.45 73.85 357.1 80 355.5 77.9 352.25 80.6 354 82.75 341.25 93.6
M 326.2 56.35
Q 327.5 57.1 327.25 58.6 326.95 59.85 325.75 61.35
L 324.5 62.85 317.75 61.35
Q 315.75 61.3 314.6 61.35
L 311.85 62.4
Q 310.15 63.5 309.1 64.9 307.6 67.1 307.6 69.25 307.6 71.9 309.45 73.4
L 311 74.15
Q 311.4 74.4 312.35 74.4
L 313.85 74.25 316.5 73.25 314.6 76.85 319 80.15
Q 319.9 77.5 322.5 74.4
L 330.1 64.65
Q 332.45 62 332.2 58.6 332.05 55.5 328.85 52.9 325.9 50.7 322.6 51.1 319.6 51.6 317.2 54.65
L 321.5 58.1 321.95 57.4
Q 323 56.15 324.1 55.85 325.15 55.4 326.2 56.35
M 322.35 65.65
L 317.6 71.75 316.5 71.9 315.5 71.9 314.45 71.4
Q 312.1 69.9 314.25 67.15 314.6 66.7 315.5 66.15
L 316.7 65.6 318.2 65.4 322.35 65.65
M 349.35 71
Q 348.15 70 346.95 69.25
L 344.6 68.65 342 68.6 344.1 66.5 340.2 62.65 321.2 82.15 325.1 86 340 70.5 342.6 71 343.7 71.85
Q 344.65 72.65 344.35 73.4 344.35 74.05 343.25 75.15
L 329 89.75 332.95 93.6 349.1 76.9
Q 350.5 75.65 350.5 74 350.65 72.2 349.35 71 Z"/>
</g>
</defs>

<g transform="matrix( 1, 0, 0, 1, 0,0) ">
<use xlink:href="#Layer0_0_FILL"/>
</g>
</svg>
