
<svg xmlns="http://www.w3.org/2000/svg" version="1.1" xmlns:xlink="http://www.w3.org/1999/xlink" preserveAspectRatio="none" x="0px" y="0px" width="550px" height="500px" viewBox="0 0 550 500">
<defs>
<g id="Layer0_0_FILL">
<path fill="#FFFFFF" stroke="none" d="
M 386 165
Q 385.5 165 385 165 384.5 165 384 165 376.5 165 369 165 269.5 165 170 165 169.5 165 169 165 168.5 165 168 165 167.5 165 167 165 167 165.5 167 166 167 166.5 167 167 167 167.5 167 168 166.5 168 166 168 166 168.5 166 169 166 169.5 166 170 166 170.5 166 171 166 171.5 166 172 166 172.5 166 173 166 173.5 166 174 166 174.5 166 175 166 175.5 166 176 165.5 176 165 176 165 176.5 165 177 165 177.5 165 178 165 178.5 165 179 165 179.5 165 180 165 180.5 165 181 165 181.5 165 182 165 182.5 165 183 164.5 183 164 183 164 183.5 164 184 164 184.5 164 185 164 185.5 164 186 164 186.5 164 187 164 187.5 164 188 164 188.5 164 189 164 189.5 164 190 164 190.5 164 191 163.5 191 163 191 163 191.5 163 192 163 192.5 163 193 163 193.5 163 194 163 194.5 163 195 163 195.5 163 196 163 196.5 163 197 163 197.5 163 198 163 198.5 163 199 163 199.5 163 200 162.5 200 162 200 162 200.5 162 201 162 201.5 162 202 162 202.5 162 203 162 203.5 162 204 162 204.5 162 205 162 205.5 162 206 162 206.5 162 207 161.5 207 161 207 161 207.5 161 208 161 208.5 161 209 161 209.5 161 210 161 210.5 161 211 161 211.5 161 212 161 212.5 161 213 161 213.5 161 214 161 214.5 161 215 160.5 215 160 215 160 215.5 160 216 160 216.5 160 217 160 217.5 160 218 160 218.5 160 219 160 219.5 160 220 160 220.5 160 221 160 221.5 160 222 159.5 222 159 222 159 222.5 159 223 159 223.5 159 224 159 224.5 159 225 159 225.5 159 226 159 226.5 159 227 159 227.5 159 228 159 228.5 159 229 159 229.5 159 230 158.5 230 158 230 158 230.5 158 231 158 231.5 158 232 158 232.5 158 233 158 233.5 158 234 158 234.5 158 235 158 235.5 158 236 158 236.5 158 237 157.5 237 157 237 157 237.5 157 238 157 238.5 157 239 157 239.5 157 240 157 240.5 157 241 157 241.5 157 242 157 242.5 157 243 157 243.5 157 244 157 244.5 157 245 156.5 245 156 245 156 245.5 156 246 156 246.5 156 247 156 247.5 156 248 156 248.5 156 249 156 249.5 156 250 156 250.5 156 251 156 251.5 156 252 156 252.5 156 253 156 253.5 156 254 155.5 254 155 254 155 254.5 155 255 155.5 255 156 255 156 255.5 156 256 156.5 256 157 256 157.5 256 158 256 162.5 256 167 256 167.5 256 168 256 168 256.5 168 257 168 257.5 168 258 168 258.5 168 259 167.5 259 167 259 167 259.5 167 260 167 260.5 167 261 167 261.5 167 262 167 262.5 167 263 167 263.5 167 264 167 264.5 167 265 167 265.5 167 266 167 266.5 167 267 166.5 267 166 267 166 267.5 166 268 166 268.5 166 269 166 269.5 166 270 166 270.5 166 271 166 271.5 166 272 166 272.5 166 273 166 273.5 166 274 166 274.5 166 275 165.5 275 165 275 165 275.5 165 276 165 276.5 165 277 165 277.5 165 278 165 278.5 165 279 165 279.5 165 280 165 280.5 165 281 165 281.5 165 282 165 282.5 165 283 165 283.5 165 284 164.5 284 164 284 164 284.5 164 285 164 285.5 164 286 164 286.5 164 287 164 287.5 164 288 164 288.5 164 289 164 289.5 164 290 164 290.5 164 291 164 291.5 164 292 164 292.5 164 293 163.5 293 163 293 163 293.5 163 294 162.5 294 162 294 162 294.5 162 295 162 295.5 162 296 161.5 296 161 296 161 296.5 161 297 161 297.5 161 298 161 298.5 161 299 161 299.5 161 300 161 300.5 161 301 161 301.5 161 302 161 302.5 161 303 161 303.5 161 304 160.5 304 160 304 160 304.5 160 305 160 305.5 160 306 160 306.5 160 307 160 307.5 160 308 160 308.5 160 309 160 309.5 160 310 160 310.5 160 311 160 311.5 160 312 160 312.5 160 313 160 313.5 160 314 160.5 314 161 314 161 314.5 161 315 161.5 315 162 315 162.5 315 163 315 165.5 315 168 315 168.5 315 169 315 169.5 315 170 315 170.5 315 171 315 171.5 315 172 315 172.5 315 173 315 173.5 315 174 315 175 315 176 315 176.5 315 177 315 177.5 315 178 315 178.5 315 179 315 179.5 315 180 315 180.5 315 181 315 181.5 315 182 315 182.5 315 183 315 185 315 187 315 187.5 315 188 315 188.5 315 189 315 189 315.5 189 316 189.5 316 190 316 190.5 316 191 316 191.5 316 192 316 193.5 316 195 316 195.5 316 196 316 196.5 316 197 316 197.5 316 198 316 198 316.5 198 317 198.5 317 199 317 199.5 317 200 317 200.5 317 201 317 203.5 317 206 317 206.5 317 207 317 207.5 317 208 317 208.5 317 209 317 209.5 317 210 317 210.5 317 211 317 212.5 317 214 317 214.5 317 215 317 215.5 317 216 317 216.5 317 217 317 217.5 317 218 317 218.5 317 219 317 219.5 317 220 317 222 317 224 317 224.5 317 225 317 225.5 317 226 317 226.5 317 227 317 227.5 317 227.75 316.75 228 316.5 228 316 228 315.5 228 315 228 314.5 228 314 228 313.5 228 313 228 312.5 228 312 228 311.5 228 311 228 310.5 228 310 228 309.5 228 309 228.5 309 229 309 229.5 309 230 309 230 308.5 230 308 230 307.5 230 307 230 306.5 230 306 230 305.5 230 305 230 304.5 230 304 230 303.5 230 303 230 302.5 230 302 230 301.5 230 301 230 300.5 230 300 230 299.5 230 299 230 298.5 230 298 230 297.5 230 297 230 296.5 230 296 230 295.5 230 295 230.5 295 231 295 231 294.5 231 294 231 293.5 231 293 231 292.5 231 292 231 291.5 231 291 231 290.5 231 290 231 289.5 231 289 231 288.5 231 288 231 287.5 231 287 231 286.5 231 286 231 285.5 231 285 231 284.5 231 284 231 283.5 231 283 231 282.5 231 282 231 281.5 231 281 231 280.5 231 280 231 279.5 231 279 231.5 279 232 279 232 278.5 232 278 232 277.5 232 277 232 276.5 232 276 232 275.5 232 275 232 274.5 232 274 232 273.5 232 273 232 272.5 232 272 231.5 272 231 272 231 271.5 231 271 230.5 271 230 271 229.5 271 229 271 228.5 271 228 271 227.5 271 227 271 226.5 271 226 271 226 271.5 226 272 225.5 272 225 272 225 272.5 225 273 224.5 273 224 273 223.5 273 223 273 222.5 273 222 273 221.5 273 221 273 220.5 273 220 273 219.5 273 219 273 218.5 273 218 273 218 273.5 218 274 218 274.5 218 275 217.5 275 217 275 216.5 275 216 275 215.5 275 215 275 214.5 275 214 275 213.5 275 213 275 212.5 275 212 275 211.5 275 211 275 211 275.5 211 276 210.5 276 210 276 209.5 276 209 276 209 276.5 209 277 208.5 277 208 277 207.5 277 207 277 206.5 277 206 277 205.5 277 205 277 204.5 277 204 277 204 277.5 204 278 203.5 278 203 278 202.5 278 202 278 201.5 278 201 278 200.5 278 200 278 199.5 278 199 278 198.5 278 198 278 198 278.5 198 279 197.5 279 197 279 196.5 279 196 279 196 279.5 196 280 195.5 280 195 280 194.5 280 194 280 193.5 280 193 280 192.5 280 192 280 191.5 280 191 280 190.5 280 190 280 190 280.5 190 281 189.5 281 189 281 189 280.5 189 280 189 279.5 189 279 189 278.5 189 278 189 277.5 189 277 189 276.5 189 276 189 275.5 189 275 189.5 275 190 275 190 274.5 190 274 190 273.5 190 273 190 272.5 190 272 190 271.5 190 271 190 270.5 190 270 190 269.5 190 269 190 268.5 190 268 190 267.5 190 267 190 266.5 190 266 190 265.5 190 265 190.5 265 190.75 264.75 191 264.5 191 264 191 263.5 191 263 191 262.5 191 262 191 261.5 191 261 191 260.5 191 260 191 259.5 191 259 191 258.5 191 258 191 257.5 191 257 191 256.5 191 256 191 255.5 191 255 191.5 255 192 255 192 255.5 192 256 192.5 256 193 256 213.5 256 234 256 234.5 256 235 256 235 255.5 235 255 235.5 255 236 255 236 255.5 236 256 236 256.5 236 257 236 257.5 236 258 236 258.5 236 259 236 259.5 236 260 236 260.5 236 261 236 261.5 236 262 236 262.5 236 263 236 263.5 236 264 236 264.5 236.25 264.75 236.5 265 237 265 237 265.5 237 266 237 266.5 237 267 237 268 237 269 237 269.5 237 270 237 270.5 237 271 237 271.5 237 272 237 272.5 237 273 237 273.5 237 274 237.5 274 238 274 238 274.5 238 275 238.5 275 239 275 239 275.5 239 276 239 276.5 239 277 239 277.5 239 278 239 278.5 239 279 239 279.5 239 280 239 280.5 239 281 239.5 281 240 281 240 281.5 240 282 240.5 282 241 282 241 282.5 241 283 241 283.5 241 284 241 284.5 241 285 241 285.5 241 286 241 286.5 241 287 241.5 287 242 287 242 287.5 242 288 242 288.5 242 289 242 289.5 242 290 242 290.5 242 291 242 291.5 242.25 291.75 242.5 292 243 292 243.5 292 244 292 244 292.5 244 293 244 293.5 244 294 244 294.5 244 295 244 295.5 244 296 244 296.5 244 297 244.5 297 245 297 245 297.5 245 298 245.5 298 246 298 246 298.5 246 299 246 299.5 246 300 246 300.5 246 301 246 301.5 246 302 246.5 302 247 302 247 302.5 247 303 247 303.5 247 304 247.5 304 248 304 248 304.5 248 305 248.5 305 249 305 249 305.5 249 306 249 306.5 249 307 249.5 307 250 307 250 307.5 250 308 250.5 308 251 308 251 308.5 251 309 251 309.5 251 310 251 310.5 251 311 251.5 311 252 311 252 311.5 252 312 252.5 312 253 312 253 312.5 253 313 253 313.5 253 314 253.5 314 254 314 254 314.5 254 315 254.5 315 255 315 255 315.5 255 316 255 316.5 255.25 316.75 255.5 317 256 317 256 317.5 256 318 256.5 318 257 318 257 318.5 257 319 257.5 319 258 319 258 319.5 258 320 258.5 320 259 320 259 320.5 259 321 259.5 321 260 321 260.5 321 261 321 261.5 321 262 321 262.5 321 263 321 263.5 321 263.75 320.75 264 320.5 264 320 264.5 320 265 320 265 319.5 265 319 265.5 319 266 319 266.5 319 267 319 267.5 319 268 319 268 318.5 268 318 268.5 318 269 318 269.5 318 270 318 270 317.5 270 317 270.5 317 271 317 271.5 317 272 317 272.5 317 273 317 273 316.5 273 316 273.5 316 274 316 274 315.5 274 315 274.5 315 275 315 275.5 315 276 315 276.5 315 276.75 314.75 277 314.5 277 314 277.5 314 278 314 278 313.5 278 313 278.5 313 279 313 279.5 313 280 313 280 312.5 280 312 280.5 312 281 312 281.5 312 282 312 282.5 312 283 312 283 311.5 283 311 283.5 311 284 311 284.5 311 285 311 285 310.5 285 310 285.5 310 286 310 286.5 310 287 310 287.5 310 288 310 288 309.5 288 309 288.5 309 289 309 289 308.5 289 308 289.5 308 290 308 290.5 308 291 308 291.5 308 291.75 307.75 292 307.5 292 307 292 306.5 292 306 292.5 306 293 306 293.5 306 294 306 294.5 306 295 306 295 305.5 295 305 295.5 305 296 305 296 304.5 296 304 296.5 304 297 304 297.5 304 298 304 298.5 304 299 304 299 303.5 299 303 299.5 303 300 303 300 302.5 300 302 300.5 302 301 302 301.5 302 301.75 301.75 302 301.5 302 301 302.5 301 303 301 303 300.5 303 300 303.5 300 304 300 304.5 300 304.75 299.75 305 299.5 305 299 305.5 299 306 299 306 298.5 306 298 306.5 298 307 298 307.5 298 308 298 308.5 298 308.75 297.75 309 297.5 309 297 309.5 297 310 297 310 296.5 310 296 310.5 296 311 296 311 295.5 311 295 311.5 295 312 295 312.5 295 313 295 313.5 295 314 295 314 294.5 314 294 314 293.5 314 293 314.5 293 315 293 315.5 293 316 293 316.5 293 317 293 317 292.5 317 292 317.5 292 318 292 318 291.5 318 291 318.5 291 319 291 319.5 291 319.75 290.75 320 290.5 320 290 320 289.5 320 289 320.5 289 321 289 321.5 289 322 289 322.5 289 323 289 323 288.5 323 288 323.5 288 324 288 324 287.5 324 287 324 286.5 324 286 324 285.5 324 285 324 284.5 324 284 323.5 284 323 284 322.5 284 322 284 321.5 284 321 284 320.5 284 320 284 319.5 284 319 284 318.5 284 318 284 317.5 284 317 284 317 284.5 317 285 316.5 285 316 285 315.5 285 315 285 314.5 285 314 285 314 285.5 314 286 313.5 286 313 286 312.5 286 312 286 311.5 286 311 286 310.5 286 310 286 309.5 286 309 286 308.5 286 308 286 307.5 286 307 286 306.5 286 306 286 305.5 286 305 286 305 286.5 305 287 304.5 287 304 287 303.5 287 303 287 302.5 287 302 287 301.5 287 301 287 300.5 287 300 287 299.5 287 299 287 298.5 287 298 287 297.5 287 297 287 296.5 287 296 287 296 287.5 296 288 295.5 288 295 288 294.5 288 294 288 294 288.5 294 289 293.5 289 293 289 292.5 289 292 289 291.5 289 291 289 290.5 289 290 289 289.5 289 289 289 288.5 289 288 289 287.5 289 287 289 286.5 289 286 289 286 289.5 286 290 285.5 290 285 290 284.5 290 284 290 284 290.5 284 291 283.5 291 283 291 282.5 291 282 291 281.5 291 281 291 281 290.5 281 290 280.5 290 280 290 280 289.5 280 289 279.5 289 279 289 279 288.5 279 288 279 287.5 278.75 287.25 278.5 287 278 287 278 286.5 278 286 277.5 286 277 286 277 285.5 277 285 277 284.5 277 284 276.5 284 276 284 276 283.5 276 283 276 282.5 276 282 275.5 282 275 282 275 281.5 275 281 274.5 281 274 281 274 280.5 274 280 274 279.5 274 279 274 278.5 274 278 273.5 278 273 278 273 277.5 273 277 272.5 277 272 277 272 276.5 272 276 272 275.5 272 275 271.5 275 271 275 271 274.5 271 274 270.5 274 270 274 270 273.5 270 273 270 272.5 270 272 270 271.5 270 271 270 270.5 270 270 269.5 270 269 270 269 269.5 269 269 269 268.5 269 268 268.5 268 268 268 268 267.5 268 267 268 266.5 268 266 268 265.5 268 265 268 264.5 268 264 267.5 264 267 264 267 263.5 267 263 267 262.5 267 262 267 261.5 267 261 267 260.5 267 260 267 259.5 267 259 267 258.5 267 258 266.5 258 266 258 266 257.5 266 257 266 256.5 266 256 266.5 256 267 256 290 256 313 256 313.5 256 314 256 314.5 256 315 256 315.5 256 316 256 316.5 256 317 256 317 256.5 317 257 317 257.5 317 258 317 258.5 317 259 317 259.5 317 260 317 260.5 317 261 317 261.5 317 262 317.5 262 318 262 318 262.5 318 263 318.5 263 319 263 319 263.5 319 264 319 264.5 319 265 319 265.5 319 266 319 266.5 319 267 319.5 267 320 267 320 267.5 320 268 320.5 268 321 268 321 268.5 321 269 321 269.5 321 270 321 270.5 321 271 321.5 271 322 271 322 271.5 322 272 322 272.5 322 273 322.5 273 323 273 323 273.5 323 274 323 274.5 323 275 323 275.5 323 276 323.5 276 324 276 324 276.5 324 277 324 277.5 324 278 324.5 278 325 278 325 278.5 325 279 325.5 279 326 279 326 279.5 326 280 326 280.5 326 281 326.5 281 327 281 327 281.5 327 282 327 282.5 327 283 327.5 283 328 283 328 283.5 328 284 328 284.5 328 285 328.5 285 329 285 329 285.5 329 286 329.5 286 330 286 330 286.5 330 287 330 287.5 330 288 330 288.5 330.25 288.75 330.5 289 331 289 331.5 289 332 289 332 289.5 332 290 332 290.5 332 291 332 291.5 332.25 291.75 332.5 292 333 292 333 292.5 333.25 292.75 333.5 293 334 293 334 293.5 334 294 334.5 294 335 294 335 294.5 335 295 335 295.5 335 296 335.5 296 336 296 336 296.5 336 297 336 297.5 336.25 297.75 336.5 298 337 298 337.5 298 338 298 338 298.5 338 299 338 299.5 338 300 338.5 300 339 300 339 300.5 339 301 339.5 301 340 301 340 301.5 340 302 340 302.5 340 303 340.5 303 341 303 341 303.5 341 304 341.5 304 342 304 342 304.5 342 305 342 305.5 342.25 305.75 342.5 306 343 306 343.5 306 344 306 344 306.5 344 307 344 307.5 344 308 344.5 308 345 308 345 308.5 345 309 345.5 309 346 309 346 309.5 346 310 346 310.5 346.25 310.75 346.5 311 347 311 347.5 311 348 311 348 311.5 348 312 348 312.5 348.25 312.75 348.5 313 349 313 349.5 313 350 313 350 313.5 350 314 350 314.5 350 315 350.5 315 351 315 351 315.5 351 316 351.5 316 352 316 352 316.5 352 317 352.5 317 353 317 353.5 317 354 317 354 317.5 354 318 354 318.5 354 319 354.5 319 355 319 355.5 319 356 319 356 319.5 356 320 356 320.5 356 321 356.5 321 357 321 357 321.5 357 322 357 322.5 357.25 322.75 357.5 323 358 323 358.5 323 359 323 359.5 323 360 323 360 323.5 360 324 360 324.5 360.25 324.75 360.5 325 361 325 361.5 325 362 325 362 325.5 362 326 362.5 326 363 326 363 326.5 363 327 363.5 327 364 327 364 327.5 364 328 364.5 328 365 328 365 328.5 365 329 365.5 329 366 329 366 329.5 366 330 366.5 330 367 330 367 330.5 367 331 367.5 331 368 331 368.5 331 369 331 369 331.5 369 332 369 332.5 369.25 332.75 369.5 333 370 333 370.5 333 371 333 371 333.5 371 334 371.5 334 372 334 372 334.5 372 335 372.5 335 373 335 373.5 335 374 335 374.5 335 375 335 375.5 335 376 335 376.5 335 377 335 377.5 335 378 335 378 334.5 378 334 377.5 334 377 334 377 333.5 377 333 377 332.5 377 332 376.5 332 376 332 376 331.5 376 331 376 330.5 376 330 375.5 330 375 330 375 329.5 374.75 329.25 374.5 329 374 329 374 328.5 374 328 374 327.5 374 327 374 326.5 374 326 373.5 326 373 326 372.5 326 372 326 372 325.5 372 325 372 324.5 372 324 372 323.5 372 323 372 322.5 371.75 322.25 371.5 322 371 322 370.5 322 370 322 370 321.5 370 321 370 320.5 370 320 369.5 320 369 320 369 319.5 369 319 369 318.5 369 318 368.5 318 368 318 368 317.5 368 317 367.5 317 367 317 367 316.5 367 316 367 315.5 367 315 367 314.5 367 314 366.5 314 366 314 366 313.5 366 313 365.5 313 365 313 365 312.5 365 312 365 311.5 365 311 365 310.5 365 310 364.5 310 364 310 364 309.5 364 309 363.5 309 363 309 363 308.5 363 308 363 307.5 363 307 363 306.5 363 306 362.5 306 362 306 362 305.5 362 305 361.5 305 361 305 361 304.5 361 304 361 303.5 361 303 361 302.5 361 302 360.5 302 360 302 360 301.5 360 301 360 300.5 360 300 359.5 300 359 300 359 299.5 359 299 358.5 299 358 299 358 298.5 358 298 358 297.5 358 297 358 296.5 358 296 358 295.5 358 295 357.5 295 357 295 357 294.5 357 294 356.5 294 356 294 356 293.5 356 293 356 292.5 356 292 356 291.5 356 291 356 290.5 356 290 355.5 290 355 290 355 289.5 355 289 354.5 289 354 289 354 288.5 354 288 354 287.5 354 287 354 286.5 354 286 353.5 286 353 286 353 285.5 353 285 353 284.5 353 284 353 283.5 353 283 352.5 283 352 283 352 282.5 352 282 351.5 282 351 282 351 281.5 351 281 351 280.5 351 280 351 279.5 351 279 351 278.5 351 278 351 277.5 351 277 350.5 277 350 277 350 276.5 350 276 349.5 276 349 276 349 275.5 349 275 349 274.5 349 274 349 273.5 349 273 349 272.5 349 272 349 271.5 349 271 349 270.5 349 270 349 269.5 349 269 348.5 269 348 269 348 268.5 348 268 348 267.5 348 267 348 266.5 347.75 266.25 347.5 266 347 266 347 265.5 347 265 347 264.5 346.75 264.25 346.5 264 346 264 346 263.5 346 263 346 262.5 346 262 346 261.5 346 261 346 260.5 346 260 346 259.5 346 259 346 258.5 346 258 346 257.5 346 257 345.5 257 345 257 345 256.5 345 256 345.5 256 346 256 370.5 256 395 256 395.5 256 396 256 396.5 256 397 256 397 255.5 397 255 397.5 255 398 255 398 254.5 398 254 398 253.5 398 253 398 252.5 398 252 397.5 252 397 252 397 251.5 397 251 397 250.5 397 250 397 249.5 397 249 397 248.5 397 248 397 247.5 397 247 397 246.5 397 246 397 245.5 397 245 397 244.5 397 244 396.5 244 396 244 396 243.5 396 243 396 242.5 396 242 396 241.5 396 241 396 240.5 396 240 396 239.5 396 239 396 238.5 396 238 396 237.5 396 237 396 236.5 396 236 395.5 236 395 236 395 235.5 395 235 395 234.5 395 234 395 233.5 395 233 395 232.5 395 232 395 231.5 395 231 395 230.5 395 230 395 229.5 395 229 395 228.5 395 228 394.5 228 394 228 394 227.5 394 227 394 226.5 394 226 394 225.5 394 225 394 224.5 394 224 394 223.5 394 223 394 222.5 394 222 394 221.5 394 221 394 220.5 393.75 220.25 393.5 220 393 220 393 219.5 393 219 393 218.5 393 218 393 217.5 393 217 393 216.5 393 216 393 215.5 393 215 393 214.5 393 214 393 213.5 393 213 392.5 213 392 213 392 212.5 392 212 392 211.5 392 211 392 210.5 392 210 392 209.5 392 209 392 208.5 392 208 392 207.5 392 207 392 206.5 392 206 392 205.5 391.75 205.25 391.5 205 391 205 391 204.5 391 204 391 203.5 391 203 391 202.5 391 202 391 201.5 391 201 391 200.5 391 200 391 199.5 391 199 391 198.5 391 198 390.5 198 390 198 390 197.5 390 197 390 196.5 390 196 390 195.5 390 195 390 194.5 390 194 390 193.5 390 193 390 192.5 390 192 390 191.5 390 191 390 190.5 390 190 390 189.5 390 189 389.5 189 389 189 389 188.5 389 188 389 187.5 389 187 389 186.5 389 186 389 185.5 389 185 389 184.5 389 184 389 183.5 389 183 389 182.5 389 182 389 181.5 389 181 388.5 181 388 181 388 180.5 388 180 388 179.5 388 179 388 178.5 388 178 388 177.5 388 177 388 176.5 388 176 388 175.5 388 175 388 174.5 388 174 388 173.5 387.75 173.25 387.5 173 387 173 387 172.5 387 172 387 171.5 387 171 387 170.5 387 170 387 169.5 387 169 387 168.5 387 168 387 167.5 387 167 387 166.5 387 166 386.5 166 386 166 386 165.5 386 165
M 331 190
Q 331 190.5 331.25 190.75 331.5 191 332 191 332 191.5 332.25 191.75 332.5 192 333 192 333.5 192 334 192 334.5 192 335 192 335 192.5 335.25 192.75 335.5 193 336 193 336.5 193 337 193 337.5 193 338 193 338 193.5 338.25 193.75 338.5 194 339 194 339 194.5 339.25 194.75 339.5 195 340 195 340.5 195 341 195 341.5 195 342 195 342.5 195 343 195 343 195.5 343.25 195.75 343.5 196 344 196 344.5 196 345 196 345 196.5 345.25 196.75 345.5 197 346 197 346 197.5 346.25 197.75 346.5 198 347 198 347 198.5 347.25 198.75 347.5 199 348 199 348.5 199 349 199 349.5 199 350 199 350 199.5 350.25 199.75 350.5 200 351 200 351 200.5 351.25 200.75 351.5 201 352 201 352.5 201 353 201 353 201.5 353.25 201.75 353.5 202 354 202 354.5 202 355 202 355 202.5 355.25 202.75 355.5 203 356 203 356 203.5 356.25 203.75 356.5 204 357 204 357.5 204 358 204 358 204.5 358.25 204.75 358.5 205 359 205 359.5 205 360 205 360 205.5 360.25 205.75 360.5 206 361 206 361 206.5 361.25 206.75 361.5 207 362 207 362.5 207 363 207 363 207.5 363.25 207.75 363.5 208 364 208 364.5 208 365 208 365 208.5 365.25 208.75 365.5 209 366 209 366.5 209 367 209 367 209.5 367.25 209.75 367.5 210 368 210 368.5 210 369 210 369 210.5 369 211 369 211.5 369.25 211.75 369.5 212 370 212 370.5 212 371 212 371 212.5 371.25 212.75 371.5 213 372 213 372.5 213 373 213 373.5 213 374 213 374 213.5 374.25 213.75 374.5 214 375 214 375.5 214 376 214 376 214.5 376 215 375.5 215 375 215 374.5 215 374 215 373.5 215 373 215 372.5 215 372 215 371.5 215 371 215 370.5 215 370 215 369.5 215 369 215 368.5 215 368 215 367.5 215 367 215 366.5 215 366 215 366 214.5 365.75 214.25 365.5 214 365 214 364.5 214 364 214 363.5 214 363 214 362.5 214 362 214 361.5 214 361 214 360.5 214 360 214 359.5 214 359 214 358.5 214 358 214 358 213.5 357.75 213.25 357.5 213 357 213 356.5 213 356 213 355.5 213 355 213 354.5 213 354 213 354 212.5 353.75 212.25 353.5 212 353 212 352.5 212 352 212 351.5 212 351 212 350.5 212 350 212 349.5 212 349 212 348.5 212 348 212 347.5 212 347 212 346.5 212 346 212 346 211.5 345.75 211.25 345.5 211 345 211 344.5 211 344 211 344 210.5 343.75 210.25 343.5 210 343 210 342.5 210 342 210 341.5 210 341 210 340.5 210 340 210 339.5 210 339 210 339 210.5 339 211 339 211.5 339 212 339 212.5 339.25 212.75 339.5 213 340 213 340 213.5 340 214 340 214.5 340 215 340 215.5 340 216 339.5 216 339 216 339 216.5 339 217 338.5 217 338 217 338 217.5 338 218 338 218.5 338 219 338 219.5 338 220 338 220.5 338 221 338 221.5 338 222 337.5 222 337 222 336.5 222 336 222 336 222.5 336.25 222.75 336.5 223 337 223 337 223.5 337 224 337 224.5 337 225 337 225.5 337 226 337 226.5 337 227 337 227.5 337 228 337 228.5 337 229 337 229.5 337 230 337 230.5 337 231 337 231.5 337 232 337 232.5 337 233 337 233.5 337 234 337 234.5 337 235 337 235.5 337 236 337 236.5 337 237 337 237.5 337 238 337 238.5 337.25 238.75 337.5 239 338 239 338 239.5 338.25 239.75 338.5 240 339 240 339.5 240 340 240 340.5 240 341 240 341.5 240 342 240 345 240 348 240 348.5 240 349 240 349.5 240 350 240 350.5 240 351 240 351.5 240 352 240 352.5 240 353 240 353.5 240 354 240 354.5 240 355 240 355.5 240 356 240 356.5 240 357 240 357.5 240 358 240 358.5 240 359 240 359 240.5 359 241 358.5 241 358 241 357.5 241 357 241 356.5 241 356 241 356 241.5 356 242 355.5 242 355 242 354.5 242 354 242 353.5 242 353 242 352.5 242 352 242 351.5 242 351 242 351 242.5 351 243 351 243.5 351 244 350.5 244 350 244 349.5 244 349 244 348.5 244 348 244 348 244.5 348 245 348 245.5 348 246 347.5 246 347 246 346.5 246 346 246 345.5 246 345 246 344.5 246 344 246 344 246.5 344 247 343.5 247 343 247 342.5 247 342 247 341.5 247 341 247 340.5 247 340 247 340 247.5 340.25 247.75 340.5 248 341 248 341.5 248 342 248 342 248.5 342 249 342 249.5 342 250 342 250.5 342 251 342 251.5 342 252 342 252.5 342 253 341.5 253 341 253 340.5 253 340 253 330 253 320 253 319.5 253 319 253 319 252.5 318.75 252.25 318.5 252 318 252 318 251.5 318 251 318 250.5 318 250 318 249.5 318 249 318 248.5 317.75 248.25 317.5 248 317 248 317 247.5 317 247 317 246.5 316.75 246.25 316.5 246 316 246 316 245.5 316 245 316 244.5 316 244 316 243.5 316 243 316 242.5 316 242 316 241.5 316 241 316 240.5 316 240 316 239.5 316 239 316 238.5 316 238 316 237.5 316 237 316 236.5 316 236 316 235.5 316 235 316 234.5 316 234 316 233.5 316 233 316 232.5 316 232 316 231.5 316 231 316 230.5 316 230 316 229.5 316 229 316 228.5 316 228 316 227.5 315.75 227.25 315.5 227 315 227 315 226.5 315 226 315 225.5 315 225 315 224.5 315 224 315 223.5 315 223 315 222.5 315 222 315 221.5 315 221 315 220.5 315 220 315 219.5 315 219 315 218.5 315 218 315.5 218 315.75 217.75 316 217.5 316 217 316.5 217 316.75 216.75 317 216.5 317 216 317 215.5 317 215 317 214.5 317 214 317 213.5 317 213 317 212.5 317 212 317 211.5 317 211 317 210.5 317 210 317 209.5 317 209 317.5 209 317.75 208.75 318 208.5 318 208 318 207.5 318 207 318 206.5 318 206 318 205.5 318 205 318 204.5 318 204 318.5 204 319 204 319.5 204 319.75 203.75 320 203.5 320 203 320 202.5 320 202 320 201.5 320 201 320 200.5 320 200 320.5 200 320.75 199.75 321 199.5 321 199 321 198.5 321 198 321 197.5 321 197 321 196.5 321 196 321 195.5 321 195 321.5 195 322 195
L 322 195.5
Q 324.35 195 322 194 322 193.5 322 193 322 192.5 322 192 322.5 192 322.75 191.75 323 191.5 323 191 323.5 191 323.75 190.75 324 190.5 324 190 324 189.5 324 189 324.5 189 325 189 325.5 189 326 189 326.5 189 327 189 327.5 189 328 189 328.5 189 329 189 329 189.5 329.25 189.75 329.5 190 330 190 330.5 190 331 190
M 182 191
Q 182 190.5 182 190 182.5 190 183 190 187.5 190 192 190 192.5 190 193 190 193.5 190 194 190 194.5 190 195 190 195.5 190 196 190 196 190.5 196 191 196 191.5 196 192 196 192.5 196 193 195.5 193 195 193 195 193.5 195 194 195 194.5 195 195 195 195.5 195 196 195 196.5 195 197 195 197.5 195 198 195 198.5 195 199 195 199.5 195 200 195 200.5 195 201 195 201.5 195 202 194.5 202 194 202 194 202.5 194 203 194 203.5 194 204 194 204.5 194 205 194 205.5 194 206 194 206.5 194 207 194 207.5 194 208 194 208.5 194 209 194 209.5 194 210 194 210.5 194 211 194 211.5 194 212 194 212.5 194 213 193.5 213 193 213 193 213.5 193 214 193 214.5 193 215 193 215.5 193 216 193 216.5 193 217 193 217.5 193 218 193 218.5 193 219 193 219.5 193 220 193 220.5 193 221 193 221.5 193 222 193 222.5 193 223 193 223.5 193 224 193 224.5 193 225 192.5 225 192 225 192 225.5 192 226 192 226.5 192 227 192 227.5 192 228 192 228.5 192 229 192 229.5 192 230 192 230.5 192 231 192 231.5 192 232 192 232.5 192 233 192 233.5 192 234 192 234.5 192 235 192 235.5 192 236 192 236.5 192 237 192 237.5 192 238 191.5 238 191 238 191 238.5 191 239 191 239.5 191 240 191 240.5 191 241 191 241.5 191 242 191 242.5 191 243 191 243.5 191 244 191 244.5 191 245 191 245.5 191 246 191 246.5 191 247 191 247.5 191 248 190.5 248 190 248 190 248.5 190 249 190 249.5 190 250 190 250.5 190 251 190 251.5 190 252 190 252.5 190 253 189.5 253 189 253 188.5 253 188 253 187.5 253 187 253 180 253 173 253 172.5 253 172 253 172 252.5 171.75 252.25 171.5 252 171 252 171 251.5 171 251 171.5 251 171.75 250.75 172 250.5 172 250 172 249.5 172 249 172 248.5 172 248 172 247.5 172 247 172 246.5 172 246 172 245.5 172 245 172 244.5 172 244 172.5 244 172.75 243.75 173 243.5 173 243 173 242.5 173 242 173.5 242 174 242
L 174.5 242
Q 174.5 241.5 174 241 174 240.5 174 240 174 239.5 174 239 174 238.5 174 238 174 237.5 174 237 174.5 237 174.75 236.75 175 236.5 175 236 175 235.5 175 235 175 234.5 175 234 175.5 234 175.75 233.75 176 233.5 176 233 176 232.5 176 232 176 231.5 176 231 176 230.5 176 230 176 229.5 176 229 176 228.5 176 228 176 227.5 176 227 176 226.5 176 226 176 225.5 176 225 176.5 225 176.75 224.75 177 224.5 177 224 177 223.5 177 223 177 222.5 177 222 177 221.5 177 221 177 220.5 177 220 177 219.5 177 219 177 218.5 177 218 177 217.5 177 217 177 216.5 177 216 177 215.5 177 215 177.5 215 177.75 214.75 178 214.5 178 214 178 213.5 178 213 178 212.5 178 212 178 211.5 178 211 178.5 211 178.75 210.75 179 210.5 179 210 179 209.5 179 209 179 208.5 179 208 179.5 208 179.75 207.75 180 207.5 180 207 180 206.5 180 206 180 205.5 180 205 180 204.5 180 204 180 203.5 180 203 180.5 203 180.75 202.75 181 202.5 181 202 181 201.5 181 201 181 200.5 181 200 181 199.5 181 199 181 198.5 181 198 181 197.5 181 197 181 196.5 181 196 181 195.5 181 195 181.5 195 181.75 194.75 182 194.5 182 194 182 193.5 182 193 182 192.5 182 192 182 191.5 182 191
M 262.75 186.75
Q 263 186.5 263 186 263.5 186 263.75 185.75 264 185.5 264 185 264 184.5 264 184 264.5 184 264.75 183.75 265 183.5 265 183 265.5 183 266 183 266.5 183 267 183 267 183.5 267.25 183.75 267.5 184 268 184 268.5 184 269 184 269 184.5 269.25 184.75 269.5 185 270 185 270.5 185 271 185 271 185.5 271.25 185.75 271.5 186 272 186 272.5 186 273 186 273.5 186 274 186 274.5 186 275 186 275 186.5 275.25 186.75 275.5 187 276 187 276.5 187 277 187 277.5 187 278 187 278.5 187 279 187 279 187.5 279.25 187.75 279.5 188 280 188 280 188.5 280.25 188.75 280.5 189 281 189 281.5 189 282 189 282.5 189 283 189 283.5 189 284 189 284 189.5 284.25 189.75 284.5 190 285 190 285.5 190 286 190 286.5 190 287 190 287 190.5 287.25 190.75 287.5 191 288 191 288 191.5 288.25 191.75 288.5 192 289 192 289.5 192 290 192 290.5 192 291 192 291 192.5 291.25 192.75 291.5 193 292 193 292.5 193 293 193 293.5 193 294 193 294.5 193 295 193 295 193.5 295.25 193.75 295.5 194 296 194 296.5 194 297 194 297.5 194 298 194 298 194.5 298 195 297.5 195 297 195 296.5 195 296 195 295.5 195 295 195 294.5 195 294 195 293.5 195 293 195 292 195 291 195 290.5 195 290 195 289.5 195 289 195 288.5 195 288 195 287.5 195 287 195 286.5 195 286 195 285.5 195 285 195 279.5 195 274 195 273.5 195 273 195 272.5 195 272 195 271.5 195 271 195 270.5 195 270 195 269.5 195 269 195 269 195.5 269 196 269 196.5 269 197 269 197.5 269 198 269 198.5 269 199 269 199.5 269 200 268.5 200 268 200 268 200.5 268 201 268 201.5 268 202 268 202.5 268 203 267.5 203 267 203 267 203.5 267 204 266.5 204 266 204 266 204.5 266 205 266 205.5 266 206 266 206.5 266 207 266 207.5 266 208 265.5 208 265 208 264.5 208 264 208 264 208.5 264 209 264 209.5 264 210 264 210.5 264 211 264 211.5 264 212 264 212.5 264 213 264 213.5 264 214 264 214.5 264 215 263.5 215 263 215 262.5 215 262 215 262 215.5 262 216 262 216.5 262 217 262 217.5 262 218 262 218.5 262 219 262 219.5 262 220 262 220.5 262 221 262 221.5 262 222 262 222.5 262 223 262 223.5 262 224 262 224.5 262 225 262 225.5 262 226 262 226.5 262.25 226.75 262.5 227 263 227 263.5 227 264 227 264.5 227 265 227 266.5 227 268 227 268.5 227 269 227 269.5 227 270 227 270.5 227 271 227 271.5 227 272 227 272.5 227 273 227 273.5 227 274 227 276 227 278 227 278.5 227 279 227 279.5 227 280 227 280.5 227 281 227 281.5 227 282 227 282.5 227 283 227 283 227.5 283 228 282.5 228 282 228 281.5 228 281 228 280.5 228 280 228 279.5 228 279 228 279 228.5 279 229 278.5 229 278 229 277.5 229 277 229 276.5 229 276 229 275.5 229 275 229 275 229.5 275 230 275 230.5 275 231 274.5 231 274 231 273.5 231 273 231 272.5 231 272 231 272 231.5 272 232 271.5 232 271 232 271 232.5 271 233 270.5 233 270 233 269.5 233 269 233 268.5 233 268 233 268 233.5 268 234 267.5 234 267 234 266.5 234 266 234 265.5 234 265 234 264.5 234 264 234 264 234.5 264 235 264 235.5 264 236 263.5 236 263 236 262.5 236 262 236 262 236.5 262 237 262 237.5 262 238 262 238.5 262 239 262 239.5 262 240 262 240.5 262 241 262 241.5 262 242 262 242.5 262 243 262 243.5 262 244 262 244.5 262 245 262 245.5 262 246 262 246.5 262.25 246.75 262.5 247 263 247 263 247.5 263 248 263 248.5 263 249 263 249.5 263 250 263 250.5 263 251 263 251.5 263.25 251.75 263.5 252 264 252 264 252.5 264 253 263.5 253 263 253 262.5 253 262 253 261.5 253 261 253 251 253 241 253 240.5 253 240 253 239.5 253 239 253 239 252.5 238.75 252.25 238.5 252 238 252 238 251.5 238 251 238.5 251 238.75 250.75 239 250.5 239 250 239 249.5 239 249 239 248.5 239 248 239 247.5 239 247 239 246.5 239 246 239 245.5 239 245 239 244.5 239 244 239.5 244 239.75 243.75 240 243.5 240 243 240 242.5 240 242 240 241.5 240 241 240 240.5 240 240 240 239.5 240 239 240 238.5 240 238 240 237.5 240 237 240 236.5 240 236 240 235.5 240 235 240 234.5 240 234 240 233.5 240 233 240.5 233 240.75 232.75 241 232.5 241 232 241 231.5 241 231 241 230.5 241 230 241 229.5 241 229 241.5 229 242 229 242.5 229.5 243 229.5
L 243 229
Q 243 228.5 243 228 243 227 243 226 243 225.5 243 225 243 224.5 243 224 243 223.5 243 223 243 222.5 243 222 243 221.5 243 221 243.5 221 243.75 220.75 244 220.5 244 220 244 219.5 244 219 244 218.5 244 218 244 217.5 244 217 244.5 217 244.75 216.75 245 216.5 245 216 245 215.5 245 215 245.5 215 245.75 214.75 246 214.5 246 214 246 213.5 246 213 246 212.5 246 212 246.5 212 247 212 247.5 212 247.75 211.75 248 211.5 248 211 248 210.5 248 210 248 209.5 248 209 248 208.5 248 208 248.5 208 249 208 249.5 208 249.75 207.75 250 207.5 250 207 250 206.5 250 206 250 205.5 250 205 250 204.5 250 204 250.5 204 250.75 203.75 251 203.5 251 203 251.5 203 251.75 202.75 252 202.5 252 202 252 201.5 252 201 252.5 201 252.75 200.75 253 200.5 253 200 253.5 200 253.75 199.75 254 199.5 254 199 254.5 199 255 199
L 255.5 199
Q 255.5 198.5 255 198 255 197.5 255 197 255 196.5 255 196 255.5 196 255.75 195.75 256 195.5 256 195 256.5 195 256.75 194.75 257 194.5 257 194 257 193.5 257 193 257.5 193 258 193 258.5 193 258.75 192.75 259 192.5 259 192 259 191.5 259 191 259 190.5 259 190 259.5 190 259.75 189.75 260 189.5 260 189 260.5 189 260.75 188.75 261 188.5 261 188 261.5 188 261.75 187.75 262 187.5 262 187 262.5 187 262.75 186.75
M 267 232.5
Q 269.25 232.5 267 232
L 267 232.5
M 261 227
L 261 227.5
Q 263.25 227.5 261 227
M 244 221.5
Q 246.25 221.5 244 221
L 244 221.5
M 274 187
L 274 187.5
Q 276.25 187.5 274 187
M 343 245.5
Q 345.25 245.5 343 245
L 343 245.5
M 362 208.5
Q 364.25 208.5 362 208
L 362 208.5
M 334 193
L 334 193.5
Q 336.25 193.5 334 193 Z"/>
</g>
</defs>

<g transform="matrix( 1, 0, 0, 1, 0,0) ">
<use xlink:href="#Layer0_0_FILL"/>
</g>
</svg>
